<svg data-v-423bf9ae="" xmlns="http://www.w3.org/2000/svg" viewBox="0 0 489 111" class="iconLeft"><!----><!----><!----><g data-v-423bf9ae="" id="4f9ae4f5-ea7e-40f1-85a5-bb813b76c24e" fill="black" transform="matrix(5.410279273986816,0,0,5.410279273986816,124.29904174804688,10.898613929748535)"><path d="M3.66 3.63L3.66 13.64L1.24 13.64L1.24 3.63L3.66 3.63ZM10.65 13.64L7.72 13.64L4.27 8.59L8.05 3.63L10.34 3.63L6.58 8.05L10.65 13.64ZM16.10 12.60L16.10 12.60L16.10 12.60Q15.89 12.77 15.63 12.97L15.63 12.97L15.63 12.97Q15.37 13.18 15.07 13.36L15.07 13.36L15.07 13.36Q14.76 13.54 14.41 13.66L14.41 13.66L14.41 13.66Q14.06 13.78 13.67 13.78L13.67 13.78L13.67 13.78Q13.20 13.78 12.84 13.60L12.84 13.60L12.84 13.60Q12.49 13.42 12.25 13.13L12.25 13.13L12.25 13.13Q12.02 12.83 11.90 12.46L11.90 12.46L11.90 12.46Q11.78 12.09 11.78 11.72L11.78 11.72L11.78 11.72Q11.78 11.22 12.01 10.77L12.01 10.77L12.01 10.77Q12.24 10.33 12.72 10.00L12.72 10.00L12.72 10.00Q13.21 9.67 13.96 9.47L13.96 9.47L13.96 9.47Q14.71 9.28 15.75 9.28L15.75 9.28L16.02 9.28L16.02 8.86L16.02 8.86Q16.02 8.31 15.67 8.02L15.67 8.02L15.67 8.02Q15.33 7.73 14.76 7.73L14.76 7.73L14.76 7.73Q14.51 7.73 14.23 7.79L14.23 7.79L14.23 7.79Q13.95 7.85 13.67 7.96L13.67 7.96L13.67 7.96Q13.39 8.07 13.13 8.21L13.13 8.21L13.13 8.21Q12.86 8.35 12.63 8.52L12.63 8.52L12.50 8.45L12.10 7.01L12.10 7.01Q12.98 6.60 13.77 6.43L13.77 6.43L13.77 6.43Q14.55 6.26 15.31 6.26L15.31 6.26L15.31 6.26Q15.96 6.26 16.53 6.38L16.53 6.38L16.53 6.38Q17.09 6.51 17.50 6.78L17.50 6.78L17.50 6.78Q17.92 7.06 18.16 7.51L18.16 7.51L18.16 7.51Q18.40 7.95 18.40 8.60L18.40 8.60L18.40 11.51L18.40 11.51Q18.40 11.63 18.42 11.75L18.42 11.75L18.42 11.75Q18.44 11.87 18.49 11.97L18.49 11.97L18.49 11.97Q18.55 12.07 18.64 12.13L18.64 12.13L18.64 12.13Q18.74 12.19 18.89 12.19L18.89 12.19L18.89 12.19Q18.98 12.19 19.08 12.17L19.08 12.17L19.08 12.17Q19.17 12.16 19.28 12.11L19.28 12.11L19.28 13.13L19.28 13.13Q18.84 13.43 18.40 13.61L18.40 13.61L18.40 13.61Q17.95 13.78 17.53 13.78L17.53 13.78L17.53 13.78Q16.99 13.78 16.65 13.47L16.65 13.47L16.65 13.47Q16.30 13.17 16.10 12.60ZM16.02 11.70L16.02 10.12L15.76 10.12L15.76 10.12Q15.22 10.12 14.86 10.20L14.86 10.20L14.86 10.20Q14.51 10.27 14.30 10.42L14.30 10.42L14.30 10.42Q14.10 10.56 14.01 10.76L14.01 10.76L14.01 10.76Q13.93 10.96 13.93 11.22L13.93 11.22L13.93 11.22Q13.93 11.48 14.01 11.66L14.01 11.66L14.01 11.66Q14.08 11.84 14.21 11.96L14.21 11.96L14.21 11.96Q14.33 12.08 14.50 12.13L14.50 12.13L14.50 12.13Q14.67 12.19 14.85 12.19L14.85 12.19L14.85 12.19Q15.11 12.19 15.40 12.08L15.40 12.08L15.40 12.08Q15.69 11.98 16.02 11.70L16.02 11.70ZM20.56 13.64L20.56 6.40L22.56 6.40L22.85 8.52L22.85 8.52Q22.96 8.33 23.07 8.12L23.07 8.12L23.07 8.12Q23.18 7.92 23.28 7.74L23.28 7.74L23.28 7.74Q23.38 7.57 23.46 7.44L23.46 7.44L23.46 7.44Q23.54 7.31 23.57 7.25L23.57 7.25L23.57 7.25Q23.70 7.03 23.86 6.85L23.86 6.85L23.86 6.85Q24.03 6.67 24.23 6.54L24.23 6.54L24.23 6.54Q24.42 6.41 24.67 6.34L24.67 6.34L24.67 6.34Q24.92 6.26 25.22 6.26L25.22 6.26L25.22 6.26Q25.42 6.26 25.65 6.31L25.65 6.31L25.65 6.31Q25.89 6.36 26.09 6.48L26.09 6.48L25.83 8.61L25.83 8.61Q25.76 8.60 25.66 8.59L25.66 8.59L25.66 8.59Q25.56 8.58 25.45 8.57L25.45 8.57L25.45 8.57Q25.33 8.57 25.23 8.56L25.23 8.56L25.23 8.56Q25.12 8.56 25.04 8.56L25.04 8.56L25.04 8.56Q24.35 8.56 23.81 8.83L23.81 8.83L23.81 8.83Q23.26 9.09 22.93 9.51L22.93 9.51L22.93 13.64L20.56 13.64ZM27.51 13.64L27.51 6.40L29.52 6.40L29.80 8.52L29.80 8.52Q29.91 8.33 30.03 8.12L30.03 8.12L30.03 8.12Q30.14 7.92 30.24 7.74L30.24 7.74L30.24 7.74Q30.34 7.57 30.42 7.44L30.42 7.44L30.42 7.44Q30.50 7.31 30.53 7.25L30.53 7.25L30.53 7.25Q30.66 7.03 30.82 6.85L30.82 6.85L30.82 6.85Q30.99 6.67 31.19 6.54L31.19 6.54L31.19 6.54Q31.38 6.41 31.63 6.34L31.63 6.34L31.63 6.34Q31.88 6.26 32.18 6.26L32.18 6.26L32.18 6.26Q32.38 6.26 32.61 6.31L32.61 6.31L32.61 6.31Q32.85 6.36 33.04 6.48L33.04 6.48L32.79 8.61L32.79 8.61Q32.72 8.60 32.62 8.59L32.62 8.59L32.62 8.59Q32.52 8.58 32.41 8.57L32.41 8.57L32.41 8.57Q32.29 8.57 32.19 8.56L32.19 8.56L32.19 8.56Q32.08 8.56 32.00 8.56L32.00 8.56L32.00 8.56Q31.31 8.56 30.77 8.83L30.77 8.83L30.77 8.83Q30.22 9.09 29.89 9.51L29.89 9.51L29.89 13.64L27.51 13.64ZM38.32 12.60L38.32 12.60L38.32 12.60Q38.12 12.77 37.86 12.97L37.86 12.97L37.86 12.97Q37.60 13.18 37.29 13.36L37.29 13.36L37.29 13.36Q36.98 13.54 36.63 13.66L36.63 13.66L36.63 13.66Q36.29 13.78 35.90 13.78L35.90 13.78L35.90 13.78Q35.42 13.78 35.07 13.60L35.07 13.60L35.07 13.60Q34.71 13.42 34.48 13.13L34.48 13.13L34.48 13.13Q34.24 12.83 34.12 12.46L34.12 12.46L34.12 12.46Q34.00 12.09 34.00 11.72L34.00 11.72L34.00 11.72Q34.00 11.22 34.23 10.77L34.23 10.77L34.23 10.77Q34.46 10.33 34.95 10.00L34.95 10.00L34.95 10.00Q35.43 9.67 36.18 9.47L36.18 9.47L36.18 9.47Q36.93 9.28 37.97 9.28L37.97 9.28L38.24 9.28L38.24 8.86L38.24 8.86Q38.24 8.31 37.90 8.02L37.90 8.02L37.90 8.02Q37.56 7.73 36.98 7.73L36.98 7.73L36.98 7.73Q36.73 7.73 36.45 7.79L36.45 7.79L36.45 7.79Q36.18 7.85 35.90 7.96L35.90 7.96L35.90 7.96Q35.62 8.07 35.35 8.21L35.35 8.21L35.35 8.21Q35.08 8.35 34.85 8.52L34.85 8.52L34.73 8.45L34.32 7.01L34.32 7.01Q35.21 6.60 35.99 6.43L35.99 6.43L35.99 6.43Q36.78 6.26 37.54 6.26L37.54 6.26L37.54 6.26Q38.19 6.26 38.75 6.38L38.75 6.38L38.75 6.38Q39.31 6.51 39.73 6.78L39.73 6.78L39.73 6.78Q40.14 7.06 40.38 7.51L40.38 7.51L40.38 7.51Q40.62 7.95 40.62 8.60L40.62 8.60L40.62 11.51L40.62 11.51Q40.62 11.63 40.64 11.75L40.64 11.75L40.64 11.75Q40.66 11.87 40.71 11.97L40.71 11.97L40.71 11.97Q40.77 12.07 40.87 12.13L40.87 12.13L40.87 12.13Q40.96 12.19 41.11 12.19L41.11 12.19L41.11 12.19Q41.21 12.19 41.30 12.17L41.30 12.17L41.30 12.17Q41.39 12.16 41.51 12.11L41.51 12.11L41.51 13.13L41.51 13.13Q41.06 13.43 40.62 13.61L40.62 13.61L40.62 13.61Q40.17 13.78 39.76 13.78L39.76 13.78L39.76 13.78Q39.22 13.78 38.87 13.47L38.87 13.47L38.87 13.47Q38.52 13.17 38.32 12.60ZM38.24 11.70L38.24 10.12L37.98 10.12L37.98 10.12Q37.44 10.12 37.09 10.20L37.09 10.20L37.09 10.20Q36.74 10.27 36.53 10.42L36.53 10.42L36.53 10.42Q36.32 10.56 36.24 10.76L36.24 10.76L36.24 10.76Q36.16 10.96 36.16 11.22L36.16 11.22L36.16 11.22Q36.16 11.48 36.23 11.66L36.23 11.66L36.23 11.66Q36.31 11.84 36.43 11.96L36.43 11.96L36.43 11.96Q36.56 12.08 36.73 12.13L36.73 12.13L36.73 12.13Q36.89 12.19 37.08 12.19L37.08 12.19L37.08 12.19Q37.33 12.19 37.62 12.08L37.62 12.08L37.62 12.08Q37.91 11.98 38.24 11.70L38.24 11.70ZM46.08 13.78L46.08 13.78L46.08 13.78Q45.14 13.78 44.44 13.49L44.44 13.49L44.44 13.49Q43.74 13.20 43.28 12.71L43.28 12.71L43.28 12.71Q42.81 12.22 42.58 11.58L42.58 11.58L42.58 11.58Q42.36 10.93 42.36 10.22L42.36 10.22L42.36 10.22Q42.36 9.39 42.66 8.67L42.66 8.67L42.66 8.67Q42.96 7.94 43.51 7.41L43.51 7.41L43.51 7.41Q44.06 6.88 44.84 6.57L44.84 6.57L44.84 6.57Q45.62 6.26 46.57 6.26L46.57 6.26L46.57 6.26Q47.50 6.26 48.20 6.55L48.20 6.55L48.20 6.55Q48.90 6.84 49.37 7.32L49.37 7.32L49.37 7.32Q49.83 7.81 50.07 8.46L50.07 8.46L50.07 8.46Q50.31 9.11 50.31 9.84L50.31 9.84L50.31 9.84Q50.31 10.68 50.00 11.41L50.00 11.41L50.00 11.41Q49.69 12.13 49.13 12.66L49.13 12.66L49.13 12.66Q48.58 13.19 47.80 13.48L47.80 13.48L47.80 13.48Q47.02 13.78 46.08 13.78ZM46.38 12.31L46.38 12.31L46.38 12.31Q46.70 12.31 46.97 12.17L46.97 12.17L46.97 12.17Q47.24 12.04 47.43 11.76L47.43 11.76L47.43 11.76Q47.63 11.48 47.75 11.07L47.75 11.07L47.75 11.07Q47.86 10.66 47.86 10.12L47.86 10.12L47.86 10.12Q47.86 9.60 47.75 9.17L47.75 9.17L47.75 9.17Q47.65 8.73 47.44 8.41L47.44 8.41L47.44 8.41Q47.24 8.09 46.95 7.91L46.95 7.91L46.95 7.91Q46.66 7.73 46.29 7.73L46.29 7.73L46.29 7.73Q45.96 7.73 45.68 7.88L45.68 7.88L45.68 7.88Q45.41 8.03 45.22 8.31L45.22 8.31L45.22 8.31Q45.02 8.59 44.91 9.00L44.91 9.00L44.91 9.00Q44.80 9.41 44.80 9.94L44.80 9.94L44.80 9.94Q44.80 10.48 44.91 10.92L44.91 10.92L44.91 10.92Q45.02 11.35 45.23 11.67L45.23 11.67L45.23 11.67Q45.43 11.98 45.72 12.14L45.72 12.14L45.72 12.14Q46.01 12.31 46.38 12.31ZM51.93 13.64L51.93 2.69L54.30 2.69L54.30 13.64L51.93 13.64ZM59.53 13.64L56.74 13.64L54.57 9.91L57.18 6.46L59.37 6.46L56.81 9.52L59.53 13.64ZM66.92 11.87L66.92 12.89L66.92 12.89Q66.55 13.15 66.17 13.32L66.17 13.32L66.17 13.32Q65.78 13.49 65.40 13.60L65.40 13.60L65.40 13.60Q65.02 13.70 64.65 13.74L64.65 13.74L64.65 13.74Q64.28 13.78 63.94 13.78L63.94 13.78L63.94 13.78Q63.06 13.78 62.36 13.55L62.36 13.55L62.36 13.55Q61.65 13.31 61.16 12.87L61.16 12.87L61.16 12.87Q60.67 12.42 60.41 11.77L60.41 11.77L60.41 11.77Q60.14 11.12 60.14 10.29L60.14 10.29L60.14 10.29Q60.14 9.34 60.47 8.60L60.47 8.60L60.47 8.60Q60.80 7.85 61.35 7.33L61.35 7.33L61.35 7.33Q61.90 6.82 62.62 6.54L62.62 6.54L62.62 6.54Q63.35 6.26 64.14 6.26L64.14 6.26L64.14 6.26Q64.83 6.26 65.40 6.47L65.40 6.47L65.40 6.47Q65.98 6.69 66.40 7.10L66.40 7.10L66.40 7.10Q66.82 7.51 67.05 8.12L67.05 8.12L67.05 8.12Q67.29 8.74 67.29 9.54L67.29 9.54L67.29 9.54Q67.29 9.80 67.26 10.01L67.26 10.01L67.26 10.01Q67.24 10.23 67.20 10.38L67.20 10.38L62.58 10.38L62.58 10.38Q62.58 10.86 62.75 11.20L62.75 11.20L62.75 11.20Q62.92 11.54 63.23 11.76L63.23 11.76L63.23 11.76Q63.54 11.98 63.98 12.09L63.98 12.09L63.98 12.09Q64.42 12.19 64.96 12.19L64.96 12.19L64.96 12.19Q65.15 12.19 65.38 12.17L65.38 12.17L65.38 12.17Q65.62 12.16 65.87 12.12L65.87 12.12L65.87 12.12Q66.13 12.09 66.40 12.03L66.40 12.03L66.40 12.03Q66.66 11.97 66.92 11.87L66.92 11.87ZM62.58 9.54L65.13 9.54L65.13 9.54Q65.13 9.07 65.04 8.73L65.04 8.73L65.04 8.73Q64.95 8.39 64.78 8.17L64.78 8.17L64.78 8.17Q64.62 7.94 64.39 7.84L64.39 7.84L64.39 7.84Q64.17 7.73 63.90 7.73L63.90 7.73L63.90 7.73Q63.61 7.73 63.37 7.85L63.37 7.85L63.37 7.85Q63.12 7.98 62.95 8.21L62.95 8.21L62.95 8.21Q62.77 8.44 62.68 8.78L62.68 8.78L62.68 8.78Q62.58 9.11 62.58 9.54L62.58 9.54Z"></path></g><!----><g data-v-423bf9ae="" id="960c0f44-d9df-4b30-8298-7786a764ce8f" transform="matrix(1.1100777387619019,0,0,1.1100777387619019,0.4961130619049072,0.5425592064857483)" stroke="none" fill="black"><path d="M0 50.047c0 25.986 19.826 47.327 45.175 49.755V72.204a3.343 3.343 0 0 1-3.333-3.332v-6.341l-18.633 9.097-5.503-8.21L50.6 35.471l11.345 17.242-6.77 3.308v12.852c0 1.832-1.5 3.332-3.334 3.332v27.749C78.594 98.976 100 77.039 100 50.047c0-27.613-22.386-50-49.999-50C22.387.047 0 22.434 0 50.047zM54.604 31.8c.993-2.752 2.83-5.229 5.465-6.966 6.453-4.246 15.124-2.453 19.372 4.001 4.245 6.45 2.46 15.117-3.995 19.372-2.635 1.732-5.634 2.438-8.558 2.256L54.604 31.8z"></path></g><!----></svg>