<svg xmlns="http://www.w3.org/2000/svg" width="256" height="256"><path fill-opacity=".016" d="M0 128.004v128.004l128.25-.254 128.25-.254.254-127.75L257.008 0H0v128.004m.485.496c0 70.4.119 99.053.265 63.672.146-35.38.146-92.98 0-128C.604 29.153.485 58.1.485 128.5" fill="#f2ecce" fill-rule="evenodd"/><path fill-opacity=".235" d="M126.287 8.019c-1.217.489-2.788 1.81-3.49 2.935-.834 1.335-2.338 2.046-4.327 2.046-4.225 0-13.733 2.583-18.546 5.039C91.171 22.504 83.733 31.628 80.392 42c-.974 3.025-2.646 6.988-3.715 8.808-1.664 2.833-1.846 4.41-1.272 11 .46 5.276 1.297 8.557 2.666 10.446 1.538 2.124 1.759 3.196.962 4.684-1.743 3.257-1.158 7.599 1.564 11.61l2.598 3.828-1.611 6.525c-.885 3.588-1.964 6.879-2.397 7.312-.611.611-25.352 11.62-48.937 21.775-2.069.891-3.033 3.896-1.683 5.246.48.479 14.338-5.306 39.608-16.536l5.676-2.522-3.176 5.895c-1.746 3.243-3.558 5.903-4.025 5.912-1.689.033-25.955 12.046-25.418 12.583.621.621 10.316-3.307 19.119-7.746 3.218-1.623 6.073-2.73 6.343-2.459.732.731-4.519 3.269-21.194 10.242-10.503 4.392-14.975 6.741-14.917 7.835.374 7.001-.029 6.562 6.024 6.562 4.933 0 5.525.21 4.925 1.75-.375.963-1.36 4.734-2.188 8.38-1.443 6.351-1.418 6.804.595 10.75 1.61 3.157 1.779 4.12.72 4.12-1.975 0-8.437-14.729-11.382-25.946-2.024-7.707-2.525-12.067-2.591-22.554-.122-19.477 3.809-34.04 13.743-50.915 5.488-9.323 19.061-23.436 28.782-29.928 7.179-4.795 8.18-5.866 10.26-10.985C80.957 34.017 81.363 32 80.614 32c-.639 0-4.552 1.931-8.694 4.292-27.437 15.636-45.653 40.257-52.613 71.115-2.232 9.891-2.176 32.526.106 43.093 1.394 6.456 5.235 17.369 9.238 26.25.348.773-.206 1.25-1.451 1.25-1.563 0-2.718-1.693-5.167-7.575-6.246-15.003-7.358-21.112-7.45-40.925-.095-20.611 1.33-28.308 8.187-44.213 5.584-12.951 12.192-22.407 23.652-33.846C57.056 40.827 67.72 33.454 79.832 28.34c5.951-2.513 10.04-5.553 10.135-7.536.053-1.122-9.811 2.589-18.495 6.957-30.742 15.463-53.484 45.798-60.089 80.151-1.932 10.049-1.887 31.383.088 41.698 1.653 8.633 5.213 19.944 7.93 25.199 1.327 2.567 1.382 3.191.28 3.191-3.475 0-4.681 3.42-4.681 13.27 0 5.329.446 9.887 1 10.23 1.467.906 1.304 24.796-.179 26.279-1.766 1.766-1.893 18.166-.163 20.97l1.387 2.25 106.076-.017c68.38-.011 106.737-.371 107.935-1.012 1.022-.547 2.153-2.568 2.514-4.491.361-1.923 1.543-4.624 2.627-6.003 1.686-2.143 1.984-4.15 2.052-13.838.063-8.988-.26-11.816-1.565-13.678-1.514-2.163-1.517-2.488-.026-4.135 1.304-1.441 1.618-4.152 1.618-13.985 0-11.598-.116-12.292-2.351-14.101-1.475-1.195-3.387-1.751-5.137-1.495-1.534.226-2.788.25-2.788.054 0-.195 1.294-2.93 2.875-6.077 4.11-8.178 7.621-18.41 9.683-28.221 2.379-11.316 2.426-31.452.102-43.25-2.389-12.122-2.807-13.106-4.891-11.521-1.526 1.16-1.545 1.793-.217 7.271 5.775 23.827 3.005 49.925-7.712 72.654-3.42 7.254-4.507 8.717-6.714 9.041l-2.634.386 5.258-10.54c7.897-15.83 10.346-25.464 10.987-43.207.411-11.398.142-16.817-1.208-24.317-1.472-8.172-1.99-9.553-3.383-9.014-.906.35-2.884.887-4.396 1.192-1.512.305-2.75.836-2.75 1.18s.675 4.152 1.5 8.463c1.738 9.081 1.94 24.313.447 33.662-1.601 10.024-7.181 25.187-12.516 34.012L207.602 178H185.865l3.317-6.181c1.825-3.399 6.695-9.699 10.822-14 6.997-7.291 7.783-7.819 11.643-7.819 2.852 0 4.328-.492 4.746-1.582.92-2.398.893-2.418-3.423-2.418-3.442 0-4.995-.819-10.644-5.61-5.984-5.077-17.055-11.387-19.982-11.389-.635-.001-2.498-2.869-4.138-6.374-1.64-3.506-4.556-8.118-6.48-10.25-2.231-2.474-4.251-6.321-5.58-10.629l-2.082-6.753 2.466-3.635c4.686-6.904 5.263-11.338 4.299-33.004-.48-10.768-.881-12.87-3.544-18.561-3.772-8.06-11.014-15.399-19.576-19.839-5.133-2.661-6.665-3.984-7.094-6.129-.301-1.505-1.575-3.381-2.831-4.169-3.059-1.92-8.77-2.734-11.497-1.639m1.286 3.931c-1.848.672-1.851.729-.083 1.408 1.015.389 2.258.294 2.764-.212 1.291-1.291-.375-2.034-2.681-1.196m5.51.333c.23.156 1.317.943 2.417 1.75 1.85 1.357 1.897 1.336.628-.283-.755-.963-1.843-1.75-2.417-1.75-.574 0-.857.127-.628.283M215 13.448c0 .247 1.125 1.663 2.5 3.147 2.466 2.661 3.382 6.405 1.567 6.405-.513 0-1.195-.829-1.517-1.842-.846-2.665-4.62-5.903-7.8-6.692-3.221-.8-3.484.102-.865 2.97 2.113 2.314 3.688 6.564 2.432 6.564-.449 0-2.074-1.575-3.61-3.5-3.531-4.426-6.27-4.484-11.785-.25-7.22 5.542-10.206 10.032-10.633 15.99-.208 2.893.073 5.93.623 6.748.84 1.249 1.539.967 4.342-1.75 1.838-1.781 3.657-3.238 4.044-3.238 1.488 0 .61 2.979-1.156 3.924-2.937 1.572-5.532 6.086-4.242 7.376.782.782 1.875.332 3.898-1.607C195.227 45.366 198 44.144 198 45.4c0 .22-1.575 1.975-3.5 3.9-3.251 3.251-4.618 6.7-2.655 6.7.465 0 1.66-.9 2.655-2 .995-1.1 2.19-2 2.655-2 1.665 0 .798 2.44-1.848 5.202-2.057 2.146-2.417 3.088-1.524 3.981.893.893 1.608.773 3.022-.507 3.645-3.298 4.58-.779 1.09 2.936-2.525 2.687-1.751 4.916 1.166 3.356 1.493-.8 1.939-.714 1.939.374 0 .777-.648 1.951-1.441 2.609-1.799 1.493-.839 4.37 1.199 3.589 1.197-.46 1.379.024.903 2.403-.327 1.639-.174 3.24.341 3.558.516.319 1.838 3.599 2.94 7.289 2.212 7.414 4.073 9.21 9.544 9.21 4.018 0 4.299-.507 1.576-2.84-1.472-1.26-2.808-6.114-5.551-20.16-1.987-10.175-4.017-19.737-4.51-21.25-.947-2.904.284-3.851 1.705-1.311.664 1.187 2.029.844 7.799-1.958 7.396-3.59 11.394-4.634 11.419-2.981.008.55-2.255 1.771-5.029 2.714-3.982 1.354-9.805 4.268-12.718 6.366-.396.285 5.718 30.649 6.287 31.218.639.638 13.493-3.804 19.036-6.579 11.713-5.863 14.468-10.022 11.81-17.824l-1.578-4.63-4.447.609c-3.304.453-4.34.291-4.033-.632.227-.683 1.7-1.467 3.274-1.742 1.573-.275 2.774-.837 2.667-1.25-.106-.413-.193-1.23-.193-1.817 0-.624-1.56-.936-3.75-.75-4.48.379-5.903-1.464-1.693-2.193 4.567-.791 3.816-3.475-.996-3.556-2.166-.037-4.116-.599-4.333-1.25-.246-.738.745-1.184 2.63-1.184 1.663 0 3.271-.399 3.572-.887.924-1.494-2.169-3.291-5.13-2.981-3.064.322-4.52-1.441-1.603-1.941 4.074-.697 4.6-1.129 3.293-2.703-.679-.818-2.755-1.488-4.612-1.488-1.858 0-3.378-.45-3.378-1s1.35-1 3-1c1.898 0 3-.512 3-1.393 0-1.683-2.155-2.607-6.082-2.607-1.605 0-2.918-.45-2.918-1s1.275-1 2.833-1c3.845 0 4.34-.764 2.634-4.063-2.014-3.895-3.719-4.789-2.899-1.521.894 3.559-.783 3.255-2.418-.439-1.365-3.083-8.15-7.686-8.15-5.529m-102.656 4.593c-11.897 2.354-21.118 9.797-26.332 21.254-1.552 3.413-2.683 6.35-2.511 6.528.171.177 2.041-.158 4.155-.745 2.114-.587 5.194-1.046 6.844-1.02 2.436.037 1.804.49-3.366 2.41-5.896 2.19-9.813 4.531-7.584 4.533 1.585.002 1.045 10.011-.597 11.049-2.521 1.595-2.949 1.073-3.113-3.8-.131-3.889-.235-4.136-.574-1.362-.227 1.864-.152 4.429.167 5.7.569 2.269.636 2.28 3.639.612 2.597-1.443 2.988-2.159 2.591-4.736-.57-3.7.248-8.464 1.454-8.464.485 0 .883 2.427.883 5.394v5.393l4.25-1.001c8.286-1.953 22.461-1.217 32.213 1.673 15.759 4.669 31.607 14.818 36.838 23.59l2.415 4.05 1.139-2.799c2.431-5.977 3.19-13.256 1.744-16.718-1.484-3.551-10.595-11.519-16.778-14.673L146 52.959l-.022 2.771c-.024 2.995-3.68 11.901-4.535 11.047-.286-.287.358-3.693 1.432-7.569 1.074-3.876 1.692-7.308 1.372-7.627-2.311-2.311 12.936 4.573 17.184 7.759 6.147 4.61 5.947 4.78 5.208-4.434-.512-6.37-1.406-9.907-3.694-14.603-7.844-16.105-30.761-26.187-50.601-22.262m4.944 2.213c-2.666 2.915-5.513 8.571-5.036 10.003.206.616 2.082-1.691 4.169-5.127 3.974-6.541 4.356-8.692.867-4.876m-8.685 1.79c-3.611 3.17-8.062 11.079-7.383 13.117.216.647 1.662-1.037 3.215-3.742 1.552-2.706 4.431-6.606 6.397-8.669 4.284-4.495 2.669-5.007-2.229-.706m20.995 1.615c.771 2.562 1.402 6.136 1.402 7.941 0 1.805.45 3.56 1 3.9 1.616.999 1.176-8.02-.609-12.48-2.213-5.533-3.511-5.071-1.793.639m6.359 2.25c1.846 4.005 3.206 8.974 3.627 13.25.773 7.838 2.416 9.214 2.416 2.023 0-6.753-2.399-14.067-5.964-18.182l-3.032-3.5 2.953 6.409m-34.282-.843c-4.315 5.042-7.898 12.37-7.476 15.291.224 1.551 1.221.215 3.608-4.831 1.814-3.836 4.445-8.478 5.846-10.316 3.734-4.895 2.185-5.007-1.978-.144M138 21.63c0 .562 1.08 2.036 2.399 3.275 3.203 3.009 7.467 12.721 8.85 20.158.799 4.298 1.369 5.584 1.986 4.481 1.297-2.317-.818-12.007-3.826-17.534C144.78 27.18 138 19.7 138 21.63m20.437 2.231C160.052 25.588 161.881 27 162.5 27c.619 0 5.095 2.025 9.945 4.5 4.851 2.475 9.016 4.5 9.257 4.5.24 0 .293-1.013.118-2.25-.246-1.732-2.508-3.338-9.82-6.975-5.225-2.599-11.075-5.024-13-5.389l-3.5-.663 2.937 3.138m-62.8 3.153c-3.582 3.145-10.576 15.38-9.441 16.515.979.979 4.802-.487 4.817-1.846.02-1.917 5.902-12.963 8.21-15.42 3.124-3.326.409-2.757-3.586.751m51.859 1.114c4.93 5.456 7.441 11.388 8.182 19.331.573 6.137.817 6.642 4.215 8.761 1.984 1.237 4.009 2.427 4.501 2.645.503.224.677-2.612.398-6.484-.605-8.394-3.824-15.178-9.958-20.983-8.224-7.784-13.567-10.165-7.338-3.27m63.538-.47c-5.667 1.983-11.533 5.915-10.124 6.786.584.361 2.981-.461 5.326-1.828 2.345-1.366 6.401-3.017 9.014-3.669 4.923-1.228 6.437-2.983 2.5-2.899-1.238.026-4.26.751-6.716 1.61m2.906 6.22C208.338 36.07 203 39.163 203 40.216c0 1.328 1.868.884 6.8-1.615 2.603-1.319 6.638-2.911 8.967-3.538 2.328-.627 4.233-1.573 4.233-2.102 0-1.469-3.995-1.065-9.06.917m-46.94.063c0 .518.416 1.198.924 1.512.507.314 1.669 2.815 2.58 5.559.911 2.743 2.155 4.988 2.764 4.988 1.259 0 7.715-4.214 7.725-5.042.008-.61-12.302-7.958-13.331-7.958-.364 0-.662.423-.662.941m52.613 5.095C214.391 40.599 206 45.301 206 46.664c0 1.756-.004 1.757 5.45-1.292 2.586-1.445 6.557-3.176 8.824-3.845 2.268-.67 4.296-1.737 4.508-2.372.44-1.322-1.038-1.356-5.169-.119m-41.401 7.173c-4.213 3.283-5.212 4.634-5.212 7.049 0 3.276-.349 3.386 6.327-1.984 1.554-1.251 3.133-2.274 3.509-2.274C183.884 49 188 61.148 188 64.242c0 2.28-1.158 3.512-6.878 7.315-6.701 4.457-6.916 4.732-8.398 10.758-.836 3.402-1.411 6.303-1.276 6.447.134.145 6.13-2.978 13.325-6.94 11.982-6.597 13.076-7.435 13.004-9.963-.043-1.518-.737-3.013-1.542-3.322-.943-.362-1.294-1.446-.988-3.049.302-1.581.018-2.488-.779-2.488-1.486 0-2.731-2.765-1.871-4.157.332-.537-.187-1.554-1.153-2.26-1.103-.807-1.555-2.051-1.216-3.347.39-1.492-.018-2.209-1.476-2.591-1.323-.346-1.871-1.149-1.595-2.336.232-.995-.513-2.788-1.655-3.985l-2.077-2.176-5.213 4.061m-78.184 1.217c-1.256 3.303-1.348 9.258-.155 9.996.937.578 2.609-11.273 1.717-12.166-.294-.293-.997.683-1.562 2.17m-8.421 1.156c-.92 2.399-.698 7.73.393 9.418.716 1.108.977.454.998-2.5.016-2.2.301-5.013.632-6.25.68-2.538-1.082-3.12-2.023-.668m38.017 5.545c-.937 3.37-1.496 6.334-1.243 6.587.928.928 3.537-4.335 4.196-8.464 1.031-6.455-.994-5.169-2.953 1.877m89.751-.105c-3.368 1.634-6.686 3.648-7.372 4.475-1.853 2.232.227 1.922 5.78-.86 2.594-1.3 6.405-2.91 8.467-3.578 2.063-.668 3.75-1.629 3.75-2.137 0-1.753-4.523-.86-10.625 2.1m2.602 6.556c-8.625 4.134-8.381 3.96-7.515 5.361.435.704 2.102.252 4.85-1.314 2.304-1.312 6.325-3.175 8.938-4.141 4.792-1.771 6.253-3.484 2.972-3.484-.978 0-5.139 1.61-9.245 3.578M176.5 59.532l-3 1.441 4.25-.574c2.338-.316 4.25-.338 4.25-.049 0 .289-2.025 1.98-4.5 3.757-4.297 3.086-5.607 4.893-3.547 4.893.525 0 3.562-2.459 6.75-5.464l5.797-5.463-3.5.009c-1.925.004-4.85.657-6.5 1.45m-24.798 5.588c-.989 3.365-1.587 6.328-1.33 6.586.935.935 3.544-4.31 4.205-8.456 1.01-6.323-.816-5.136-2.875 1.87m89.967-2.87c.442 1.237.81 3.895.818 5.905.007 2.009.351 3.445.763 3.19.898-.555 1.001-7.528.143-9.763-.968-2.523-2.633-1.878-1.724.668m-5.018 4.035c.563 5.151.379 6.054-1.684 8.25-1.273 1.356-1.866 2.465-1.316 2.465s1.979-1.042 3.175-2.314c2.588-2.755 2.953-9.29.683-12.245-1.356-1.765-1.434-1.418-.858 3.844M93.628 63.713c-1.704.437-1.659.603.5 1.841 4.764 2.731 7.059 3.437 9.329 2.868 2.111-.53 2.359-.197 2.781 3.748.255 2.381-.09 5.716-.765 7.41-.676 1.693-1.259 6.297-1.296 10.231-.078 8.33 1.289 10.033 6.07 7.562 1.544-.799 4.483-1.322 6.53-1.163 3.299.257 3.714.034 3.644-1.96-.044-1.237.263-2.25.682-2.25 1.228 0 2.089 3.821 1.37 6.085-.444 1.399.003 2.798 1.358 4.25 2.224 2.385 7.169 11.778 7.169 13.619 0 .64.45.886 1 .546.55-.34 1.015-1.829 1.033-3.309l.034-2.691 1.966 2.361c1.082 1.298 1.967 2.986 1.967 3.75 0 2.047 1.19 1.713 4.847-1.361 3.916-3.292 5.087-7.555 5.151-18.75.046-7.846.08-7.956 1.81-5.708l1.764 2.292 2.188-2.329c3.952-4.206 3.356-6.586-2.921-11.67-3.113-2.522-7.124-5.442-8.914-6.489l-3.254-1.903 1.665 2.376c2.571 3.672 2.01 4.148-2.296 1.951-2.178-1.111-5.441-2-7.25-1.976l-3.29.044 3.875 1.381c7.373 2.628 6.633 3.529-2.925 3.561-6.569.023-8.484.302-7.2 1.05 3.54 2.062 1.622 2.895-2.19.951-2.495-1.273-5.29-4.045-7.625-7.562-3.84-5.786-4.109-8.143-.518-4.552 2.505 2.505 3.732 2.53 11.899.246l6.315-1.766-7.315-1.712c-6.835-1.598-22.561-2.161-27.188-.972M157 65.265c0 1.245-.88 3.907-1.956 5.915l-1.956 3.649 3.457 2.637c1.901 1.451 4.183 4.041 5.07 5.757 1.371 2.652 1.752 2.873 2.535 1.474.506-.905 1.193-4.564 1.526-8.13.599-6.415.567-6.524-2.935-10.026-4.099-4.099-5.741-4.464-5.741-1.276m16-1.206c0 .582.45.781 1 .441s1-.816 1-1.059-.45-.441-1-.441-1 .477-1 1.059m55.407 2.191c1.91 6.704 1.827 7.284-1.5 10.537-4.036 3.946-3.387 5.008 1.184 1.938 3.77-2.532 4.885-7.029 2.983-12.031-1.255-3.301-3.591-3.689-2.667-.444m-142.853.087c-1.006.736-1.655 1.819-1.442 2.408.214.588 1.197-.013 2.185-1.338 2.043-2.737 1.872-2.983-.743-1.07m.971 6.265c-.938 1.431-1.479 3.467-1.202 4.524.362 1.385.038 1.845-1.16 1.648-1.167-.192-1.76.571-1.988 2.561-.256 2.241.513 3.607 3.675 6.527 2.2 2.031 4.289 5.03 4.643 6.665.591 2.733.525 2.827-.827 1.165-1.326-1.629-1.541-.863-2.191 7.795-.396 5.281-.492 9.829-.215 10.107.278.277 1.887-2.449 3.577-6.058 1.689-3.61 3.732-6.817 4.541-7.128 1.027-.394 1.321-1.522.975-3.736-.311-1.992.077-3.916 1.044-5.172 1.51-1.962 1.541-1.953 1.642.5.092 2.217 2.813-5.31 4.667-12.91.575-2.354.533-2.371-1.781-.75-1.304.913-3.015 1.66-3.802 1.66-1.191 0-1.167-.296.138-1.75 1.474-1.641 1.253-1.766-3.55-2.006-6.544-.326-8.106-1.754-3.869-3.535 3.415-1.436 3.23-2.709-.394-2.709-1.286 0-2.935 1.094-3.923 2.602m147.341 7.909c-1.449.788-2.915 2.546-3.257 3.909-.482 1.922-1.964 2.967-6.615 4.663-5.874 2.141-7.772 3.917-4.188 3.917 2.837 0 14.506-4.11 16.444-5.791 1.711-1.485 2.539-8.251 1-8.169-.412.022-1.935.684-3.384 1.471m-122.108 1.305c-.258.987-.251 3.277.015 5.09.596 4.059 2.189 2.188 2.212-2.597.017-3.567-1.501-5.267-2.227-2.493m112.016 3.008c-2.654 1.194-3.488 2.057-2.896 3 .683 1.088 1.481 1.053 4.477-.199 2.005-.838 3.645-2.221 3.645-3.074 0-1.886-.481-1.861-5.226.273m-81.456 4.75c-1.201 1.3-4.233 2.879-6.738 3.51-4.886 1.23-5.262 2.916-.65 2.916 2.617 0 2.858.345 3.47 4.959.924 6.964 2.341 7.121 2.21.244-.089-4.664.312-6.195 2.14-8.161 1.238-1.33 2.25-3.234 2.25-4.231 0-2.178.046-2.191-2.682.763m17.115 8.853c-.431 1.059-.254 5.583.392 10.052 2.267 15.68 1.186 19.908-6.653 26.015-4.639 3.614-4.672 3.622-5.231 1.322-.51-2.105-.621-2.022-1.22.902-.471 2.301-1.8 3.938-4.67 5.75-2.206 1.392-4.225 2.532-4.486 2.532-.261 0-.787-1.668-1.17-3.707l-.695-3.708-1.224 4.821c-1.363 5.368-1.694 5.674-9.476 8.78-6.748 2.693-17.647 2.909-23.204.459-3.009-1.327-3.831-2.315-4.386-5.271-.594-3.166-.814-3.394-1.694-1.756-.556 1.035-1.178 2.078-1.382 2.317-.204.239-2.162-1.315-4.352-3.453-2.85-2.783-4.002-4.754-4.052-6.935-.054-2.332-.241-2.614-.797-1.2-.593 1.507-.926 1.599-1.805.5-1.52-1.899-4.489-7.868-5.394-10.841-.65-2.139-.773-1.92-.838 1.494-.18 9.455 7.974 19.826 20.425 25.978 3.961 1.957 7.922 4.354 8.802 5.327 2.491 2.752 4.58 8.517 5.297 14.621.361 3.066 1.011 5.574 1.446 5.574.435 0 1.72-2.485 2.856-5.521 3.352-8.959 6.778-15.049 9.985-17.747 1.653-1.391 8.08-5.387 14.284-8.88 13.233-7.452 21.116-14.518 22.707-20.352 1.615-5.92 1.276-15.145-.826-22.5-1.445-5.059-2.03-6.073-2.639-4.573m-56.734 10.518c-5.013.998-5.898 2.052-5.517 6.572.408 4.855 3.231 6.927 5.427 3.983 1.327-1.78 1.321-2.036-.059-2.323-3.9-.814.256-4.177 5.162-4.177 4.703 0 9.558 4.38 5.738 5.177-1.38.287-1.386.543-.059 2.323 2.181 2.925 5.018.874 5.424-3.921.38-4.503-.819-6.135-5.081-6.912a173.799 173.799 0 01-5.234-1.034c-1.1-.245-3.71-.105-5.801.312m65.279 10.683c-.05 11.148-6.829 18.95-25.951 29.87-6.74 3.849-13.486 8.4-14.991 10.114-1.505 1.714-4.205 6.644-6 10.955-3.065 7.363-3.194 8.146-2.125 12.886 1.661 7.366 3.055 9.066 3.074 3.752.011-3.274.63-4.911 2.6-6.881 2.389-2.389 3.077-2.545 9.107-2.061 7.543.606 9.62 2.123 9.731 7.107.088 3.954.628 3.796 2.144-.625.822-2.398.756-3.471-.287-4.678-.744-.862-2.495-3.021-3.89-4.799-3.479-4.432-8.986-6.045-13.198-3.867-1.723.891-3.633 2.554-4.243 3.695-2.152 4.02-2.129.956.041-5.565 2.425-7.288 6.2-12.531 9.022-12.531 3.263 0 7.561 4.716 10.899 11.958l3.261 7.074 3.829-3.032c12.271-9.719 26.001-31.229 25.998-40.73-.001-3.267-4.96-14.172-7.341-16.142-1.505-1.246-1.66-.922-1.68 3.5m1.771-.044c-.412.412-.749 1.969-.749 3.461 0 3.841-2.478 9.291-6.101 13.418-3.528 4.017-2.926 4.46 1.989 1.464l3.388-2.065-.512 4.536c-.281 2.495-2.152 7.992-4.158 12.216-2.005 4.223-3.467 7.859-3.247 8.079 1.49 1.49 13.985-20.952 15.161-27.229.604-3.23-4.395-15.255-5.771-13.88m-99.039 9.844c-.993 2.862-1.647 7.474-1.559 11l.151 6.072.646-7.714c.356-4.243.906-7.973 1.222-8.289.316-.316 1.342 1.805 2.281 4.714.939 2.909 2.346 6.286 3.128 7.504 2.066 3.219 1.755 3.734-1.12 1.85l-2.541-1.665.591 5.3c.325 2.915.822 6.807 1.105 8.648.368 2.401.182 3.144-.657 2.625-1.392-.86-.709 1.794 2.179 8.47l1.922 4.443 3.354-4.979c7.248-10.763 14.314-8.511 16.019 5.106.533 4.256.437 4.707-.653 3.075-4.899-7.332-11.643-7.617-15.249-.643l-1.493 2.885 3.732.59c4.798.758 8.817.756 13.391-.007l3.659-.611-1.885-6.8c-2.67-9.636-3.499-11.069-8.675-15.002-8.965-6.812-15.741-17.429-17.148-26.871l-.691-4.629-1.709 4.928m-21.288 1.006c-4.907 2.433-8.123 4.455-7.147 4.494.976.04 5.026-1.556 9-3.545 8.021-4.016 8.267-4.175 7.564-4.878-.273-.272-4.51 1.496-9.417 3.929m131.136 6.11c-1.761 9.387-14.528 28.989-24.384 37.436-5.209 4.466-5.701 4.054 5.235 4.376l4.909.144 4.091-8c5.369-10.5 11.391-19.182 18-25.951 5.68-5.817 5.682-6.005.091-8.797-6.443-3.218-7.204-3.142-7.942.792M62.685 147.501c-1.883 5.738-5.216 20.055-6.08 26.12l-.587 4.121 4.741.708c5.631.84 7.551.84 12.368-.004l3.626-.636-2.35-4.205c-3.104-5.553-5.101-11.193-7.828-22.104l-2.249-8.998-1.641 4.998m7.481.999c-.013 2.129 2.565 10.692 2.71 9 .047-.55-.541-3.25-1.306-6s-1.397-4.1-1.404-3m115.575 4.25C182.884 155.733 173 171.69 173 173.319c0 .55 2.27-2.784 5.045-7.409 2.775-4.626 6.396-10.097 8.047-12.16 3.532-4.412 3.367-4.883-.351-1M211 153c0 .55.675 1 1.5 1s1.5-.45 1.5-1-.675-1-1.5-1-1.5.45-1.5 1m-155.921 1.583c.048 1.165.285 1.402.604.605.289-.722.253-1.585-.079-1.917-.332-.332-.568.258-.525 1.312m-1.928 7.216c-1.643 7.565-1.266 9.866.452 2.761.79-3.267 1.271-6.417 1.068-7-.203-.583-.887 1.325-1.52 4.239M51.158 173c0 1.375.227 1.938.504 1.25.278-.687.278-1.812 0-2.5-.277-.687-.504-.125-.504 1.25m-30.366 16.75c.251 3.162.851 6.508 1.332 7.434.482.927.876 9.153.876 18.282 0 13.83-.25 16.693-1.5 17.172-1.099.422-1.5 2.153-1.5 6.469V245h11v-5.941c0-3.268-.45-6.219-1-6.559-1.442-.891-1.165-6.577.463-9.5 1.523-2.734 1.617-2.613 3.453 4.434.587 2.254.652 4.388.153 5-.479.586-1.028 3.654-1.22 6.817l-.349 5.752 6-.001 6-.001-.133-5.325c-.074-2.928-.822-6.655-1.663-8.281-.84-1.626-2.678-6.923-4.084-11.772l-2.556-8.815 3.514-7.404c1.932-4.072 3.83-7.404 4.218-7.404.387 0 .704-2.7.704-6v-6h-5.769c-5.453 0-5.744.123-5.308 2.25 1.725 8.426 1.581 14.667-.459 19.873-3.392 8.655-4.245 8.435-3.736-.965.249-4.588.916-8.638 1.484-9 .567-.362 1.087-3.246 1.155-6.408l.124-5.75H20.335l.457 5.75m32.838-3.5c-.331 1.238-.609 5.039-.616 8.449-.016 6.951-2.558 27.807-4.091 33.551-.55 2.063-1.433 3.75-1.962 3.75-.528 0-.961 2.925-.961 6.5v6.5h11v-6.5c0-3.667-.436-6.5-1-6.5-.55 0-1-.9-1-2 0-1.477.667-2 2.55-2 2.525 0 2.544.059 1.941 6.25-.334 3.438-.815 7.262-1.068 8.5-.459 2.24-.403 2.25 12.308 2.252l12.769.002v-5.752c0-3.23-.548-6.331-1.25-7.073-1.773-1.874-1.666-11.179.128-11.179 2.655 0 3.884 2.962 3.747 9.026-.074 3.303-.225 6.336-.333 6.74-.109.404.434 2.422 1.206 4.484l1.404 3.75H108v-6c0-3.333-.444-6-1-6s-1-2.667-1-6c0-4.71.328-6 1.525-6 2.329 0 3.724 4.902 3.058 10.741-.357 3.124-.093 6.86.653 9.25l1.251 4.009h18.795l-.53-8.5c-.527-8.443-.515-8.5 1.859-8.5 1.698 0 2.389.561 2.389 1.941 0 1.068-.45 2.219-1 2.559-.55.34-1 3.291-1 6.559V245h12v-5.917c0-3.258-.474-6.074-1.054-6.268-.58-.193-1.464-2.176-1.965-4.405-1.662-7.397-3.981-28.734-3.981-36.63V184h-9.699l-.681 11.202c-1.201 19.783-4.136 36.799-6.345 36.797-.426 0-.616 2.294-.422 5.097.199 2.868-.129 5.58-.75 6.201-.804.804-1.103-.426-1.103-4.538 0-3.103-.48-5.938-1.067-6.3-.607-.376-.963-3.19-.826-6.539.177-4.347-.197-6.362-1.434-7.728-2.123-2.347-2.107-3.489.077-5.466 2.355-2.131 2.265-16.755-.13-21.226-.884-1.65-1.61-3.739-1.614-4.643-.008-2.274-2.066-2.857-10.088-2.857H97v6c0 3.333.444 6 1 6 .628 0 1 6.476 1 17.429 0 14.474-.265 17.693-1.564 18.992-.86.86-1.322 1.954-1.028 2.43.295.477.148 2.843-.327 5.258l-.862 4.391-.109-5.667c-.068-3.48-.58-5.823-1.329-6.073-.815-.271-1.159-2.527-1.041-6.812.148-5.314-.186-6.794-1.955-8.677L88.651 215l2.089-2.25c3.201-3.447 3.341-15.502.259-22.25-1.255-2.75-2.782-5.331-3.391-5.735-.609-.404-4.282-.741-8.161-.75L72.394 184l.053 5.75c.033 3.623.56 6.147 1.422 6.824 1.856 1.455 1.246 35.554-.647 36.185-.764.255-1.222 2.46-1.222 5.883 0 3.396-.38 5.241-1 4.858-.55-.34-1-2.751-1-5.359s-.417-5.169-.926-5.691c-1.571-1.611-3.948-16.561-5.227-32.883L62.626 184H58.43c-3.507 0-4.296.37-4.8 2.25m97.704-.5c-.332.963-1.483 3.775-2.558 6.25-1.696 3.908-1.956 6.869-1.972 22.5-.017 16.164.194 18.459 2.067 22.5 1.147 2.475 2.095 5.287 2.107 6.25.018 1.427.931 1.75 4.943 1.75 4.743 0 4.945-.117 5.607-3.25.378-1.787 1.582-4.722 2.675-6.521 1.77-2.914 1.918-4.389 1.357-13.5-.346-5.626-.252-13.463.208-17.416.713-6.131.581-7.525-.904-9.494-.958-1.269-2.277-4.222-2.932-6.563-1.171-4.183-1.268-4.256-5.593-4.256-3.296 0-4.553.44-5.005 1.75M168 189.941c0 3.268.45 6.219 1 6.559 1.405.868 1.332 34.768-.078 36.178-.592.592-1.195 3.607-1.34 6.7L167.32 245H178v-5.453c0-2.999-.522-6.598-1.159-7.997-.885-1.942-.873-3.499.049-6.576.664-2.217 1.59-3.795 2.058-3.506 1.554.96 3.484 10.888 2.2 11.316-.692.231-1.148 2.736-1.148 6.299V245h11.793l.065-5.465c.036-3.005-.358-5.726-.875-6.046-.518-.32-2.513-5.546-4.435-11.614l-3.493-11.033 3.447-6.847c1.897-3.765 3.909-7.131 4.473-7.48.564-.348 1.025-3.306 1.025-6.574V184h-11.6l.809 8.25c.708 7.227.537 9.025-1.385 14.5-1.207 3.438-2.626 6.25-3.153 6.25-1.286 0-.132-14.939 1.262-16.333.587-.587 1.067-3.677 1.067-6.867V184h-11v5.941m25.241-.191c.142 3.162.709 6.07 1.259 6.462.577.41 1.133 7.865 1.314 17.614.266 14.287.072 17.145-1.25 18.467-1.04 1.04-1.564 3.409-1.564 7.071v5.507l10.502.315 10.502.314-.002-13-.002-13h-6v6.128c0 4.358-.455 6.505-1.576 7.435-1.901 1.578-3.05.224-4.002-4.713-.845-4.382-.151-6.875 1.866-6.711 1.461.118 1.712-.854 1.712-6.639 0-5.841-.242-6.759-1.75-6.639-1.495.119-1.716-.653-1.516-5.295.266-6.169 1.401-8.029 3.724-6.101 1.066.885 1.542 3.075 1.542 7.091 0 5.691.056 5.809 2.75 5.732l2.75-.079.044-12.855.044-12.854h-20.606l.259 5.75M219 185.54c0 .847-.802 3.209-1.782 5.25-2.424 5.044-2.34 21.77.126 25.29.911 1.301 1.656 3.195 1.656 4.21 0 1.37.499 1.687 1.939 1.229 1.363-.432 2.284.029 3.1 1.554 1.56 2.915 1.474 8.992-.141 9.99-2.013 1.244-2.898.138-2.898-3.622 0-3.087-.283-3.441-2.75-3.441h-2.75v18.778l6.077.035 6.076.035 1.301-3.674c.715-2.021 1.774-4.268 2.353-4.993 1.707-2.139 1.188-19.324-.694-22.963-.887-1.715-1.613-3.869-1.613-4.785 0-1.176-.591-1.512-2.007-1.141-3.501.915-6.184-5.025-4.386-9.71 1.384-3.607 4.393-1.038 4.393 3.75 0 1.698.596 2.168 2.75 2.168h2.75l.022-9.75.023-9.75h-2.773c-1.524 0-2.772.54-2.772 1.2 0 .933-.267.933-1.2 0-1.785-1.785-6.8-1.535-6.8.34M82.689 196.697c-.945 1.535-1.891 10.167-1.231 11.235.47.761 1.242.764 2.653.009 1.658-.888 1.939-1.917 1.689-6.174-.271-4.613-1.829-7.152-3.111-5.07m23.918.885c-.945 2.463-.713 10.234.325 10.876 1.307.808 4.068-3.431 4.068-6.246 0-2.687-1.662-6.212-2.928-6.212-.472 0-1.131.712-1.465 1.582m48 0c-.786 2.048-.766 30.223.023 33.168.819 3.053 2.176 2.832 3.066-.5.975-3.649.996-28.004.028-31.5-.849-3.065-2.195-3.57-3.117-1.168m-110.504 9.216c-1.861 3.649-1.919 4.367-.669 8.347.753 2.395 1.422 3.68 1.487 2.855.066-.825.54-4.408 1.053-7.963.514-3.554.761-6.635.55-6.846-.212-.212-1.301 1.412-2.421 3.607m12.572 6.607c-1.029 2.682-.82 3.595.825 3.595 1.643 0 1.738-.535.605-3.427-.701-1.788-.804-1.8-1.43-.168M131 214.5c0 1.375.45 2.5 1 2.5s1-1.125 1-2.5-.45-2.5-1-2.5-1 1.125-1 2.5" fill="#f2ecce" fill-rule="evenodd"/><path fill-opacity=".489" d="M123.314 10.595c-1.954 1.954-4.203 2.823-9.097 3.516-16.416 2.325-28.108 12.036-33.309 27.666-1.207 3.627-3.073 8.083-4.146 9.902-1.567 2.655-1.824 4.344-1.304 8.564 1.044 8.473 1.618 10.69 3.169 12.241 1.196 1.196 1.26 2.221.352 5.594-.994 3.692-.84 4.686 1.454 9.376 2.998 6.126 3.065 7.025 1.048 13.964l-1.519 5.226-20.731 9.121c-11.402 5.017-22.868 10.031-25.481 11.143-3.449 1.467-4.75 2.578-4.75 4.056 0 1.12.227 2.036.504 2.036.647 0 39.098-16.767 42.746-18.64 3.479-1.786 3.447-1.305-.25 3.799-1.65 2.277-3 4.731-3 5.451 0 .721-5.854 4.099-13.009 7.508-7.155 3.408-12.849 6.357-12.654 6.553.466.465 5.713-1.749 15.633-6.597 5.379-2.629 8.03-3.485 8.03-2.594 0 1.127-15.47 8.241-32.779 15.072-3.37 1.33-4.167 2.088-3.75 3.568.291 1.034.784 2.78 1.096 3.88.469 1.653 1.424 2 5.5 2 2.713 0 4.914.338 4.891.75-.023.412-.864 4.125-1.868 8.25l-1.825 7.5 2.384 4.75c3.186 6.345.55 6.651-3.135.364-7.691-13.123-12.049-32.832-11.193-50.614.881-18.281 6.342-34.665 16.706-50.119 5.666-8.45 19.062-21.404 27.278-26.381 5.386-3.262 6.87-4.738 8.044-8 .792-2.2 1.788-4.859 2.213-5.91 1.196-2.95-14.104 5.582-23.524 13.12-19.781 15.826-32.862 37.734-37.606 62.978-1.266 6.735-1.532 12.23-1.131 23.312.591 16.323 2.629 25.644 8.285 37.891 1.878 4.065 3.414 7.552 3.414 7.75 0 .197-1.083.359-2.407.359-2.044 0-2.862-1.095-5.432-7.267C5.783 132.389 12.484 89.592 40.102 57.16 50.38 45.092 65.717 33.869 80 27.966 85.488 25.698 91.655 21 89.144 21c-2.631 0-16.732 6.213-24.251 10.686C46.523 42.614 31.824 58.637 21.948 78.5c-7.869 15.826-10.937 27.684-11.669 45.097-.793 18.85 2.152 34.331 10.206 53.653.557 1.338.242 1.75-1.343 1.75-3.129 0-4.142 3.012-4.142 12.312 0 6.285.383 8.761 1.5 9.688 2.14 1.776 2.167 23.736.032 26.559-1.051 1.389-1.477 4.702-1.5 11.656-.028 8.429.211 9.845 1.808 10.699 1.174.629 39.826.991 106.729 1.001 91.191.013 105.186-.179 107.16-1.473 1.249-.819 2.281-2.04 2.293-2.715.012-.675.999-3.252 2.193-5.727 1.799-3.726 2.201-6.477 2.343-16 .135-9.037-.154-11.875-1.348-13.25-1.364-1.57-1.35-1.938.135-3.579 1.354-1.496 1.655-4.098 1.655-14.3 0-8.366-.395-12.866-1.2-13.671-.66-.66-2.91-1.2-5-1.2s-3.8-.401-3.8-.89c0-.49 1.571-4.069 3.491-7.955 3.846-7.781 7.944-20.942 9.493-30.487 1.715-10.569 1.237-28.768-1.05-39.994-1.137-5.577-2.198-10.271-2.357-10.431-.16-.159-.963-.032-1.785.283-1.306.501-1.258 1.539.381 8.274 5.694 23.39 1.998 52.954-9.291 74.303-2.808 5.311-3.867 6.452-6.241 6.724-1.572.18-2.693-.045-2.49-.5.202-.455 2.448-4.877 4.989-9.827 9.003-17.533 12.6-34.4 11.515-54-.335-6.05-1.204-13.475-1.931-16.5-1.306-5.437-1.361-5.497-4.758-5.214-4.56.379-5.136 1.148-3.937 5.254.556 1.903 1.463 7.791 2.015 13.084 2.038 19.533-2.659 40.874-12.808 58.192-5.64 9.623-5.75 9.684-17.236 9.684-7.073 0-10-.349-10-1.192 0-2.795 8.793-15.648 14.659-21.428 5.517-5.436 6.92-6.307 10.591-6.573 3.165-.23 4.321-.769 4.581-2.14.297-1.564-.235-1.791-3.628-1.546-3.574.258-4.558-.244-9.734-4.976-5.515-5.04-14.161-10.143-19.469-11.492-1.888-.48-3.212-2.239-5.411-7.186-1.6-3.603-4.558-8.444-6.573-10.759-2.402-2.759-4.256-6.353-5.385-10.437-1.676-6.062-1.669-6.302.265-9 4.336-6.044 5.258-12.677 4.297-30.916-.763-14.467-1.222-17.563-3.242-21.855-3.336-7.089-13.083-16.555-20.696-20.098-4.569-2.127-6.241-3.436-6.26-4.902-.053-4.124-3.698-6.5-9.975-6.5-3.092 0-4.754.643-6.706 2.595m3.436.979c-1.435 1.454-.734 2.426 1.75 2.426 1.375 0 2.5-.436 2.5-.969 0-1.159 3.209-.114 4.196 1.367.382.574 1.027.712 1.433.306.406-.405.26-1.215-.325-1.8-1.34-1.34-8.553-2.345-9.554-1.33m91.78 6.066c1.359 2.001 2.47 4.026 2.47 4.5 0 1.724-2.883.805-3.492-1.114-.905-2.852-5.355-6.031-8.393-5.996-2.124.025-2.311.209-.996.977 2.358 1.377 4.438 6.836 3.11 8.164-.745.745-1.542.124-2.692-2.099-3.519-6.805-8.346-6.105-16.903 2.452-5.149 5.149-7.233 10.47-6.218 15.88.692 3.688 2.217 4.716 3.199 2.156.828-2.156 5.449-4.896 6.494-3.851.527.527-.546 2.292-2.607 4.289C190.576 44.865 189 47.251 189 48.3c0 1.651.475 1.49 3.535-1.196 6.325-5.554 7.757-3.036 1.764 3.102-2.504 2.564-3.374 4.119-2.687 4.806.686.686 1.779.201 3.376-1.499 1.298-1.382 2.732-2.513 3.186-2.513 1.667 0 .758 2.716-1.674 5-1.375 1.292-2.5 3.201-2.5 4.242 0 1.805.141 1.793 3-.242 2.714-1.933 3-1.969 3-.383 0 .965-.947 2.762-2.105 3.995-2.646 2.816-1.572 5.311 1.204 2.798 1.806-1.634 1.901-1.623 1.901.235 0 1.075-.51 2.465-1.133 3.088-1.559 1.559-.324 4.38 1.595 3.643 1.746-.67 2.191 2.102.505 3.144-.658.407-.34 1.786.879 3.809 1.051 1.744 2.205 4.826 2.564 6.85.971 5.463 3.389 7.856 8.6 8.511l4.49.564-2.172-2.093c-2.671-2.575-2.422-1.696-6.861-24.161-2.112-10.686-4.315-19.239-5.217-20.25-1.414-1.587-1.412-1.75.024-1.75.871 0 2.288.704 3.149 1.566 1.42 1.42 2.144 1.282 7.821-1.493 7.87-3.848 12.756-4.931 12.756-2.828 0 .913-1.707 1.973-4.381 2.722-2.41.674-6.628 2.51-9.374 4.078l-4.993 2.852 2.878 14.301c1.582 7.866 3.073 14.829 3.312 15.473 1.057 2.848 23.934-7.057 28.617-12.391 3.308-3.768 3.784-7.749 1.463-12.237-1.344-2.599-1.843-2.81-5.5-2.319-3.155.423-4.022.215-4.022-.967 0-.884 1.277-1.762 3.086-2.124 4.775-.955 3.125-3.206-2.043-2.786-5.204.423-5.227-1.602-.038-3.349 3.9-1.313 2.662-2.795-2.441-2.922-4.093-.102-4.47-1.856-.639-2.971 3.077-.895 4.179-2.524 1.825-2.697-.687-.05-2.56-.163-4.162-.25-4.312-.234-4.365-2.422-.078-3.226 4.366-.819 3.442-2.176-1.781-2.615-4.71-.396-4.968-1.955-.576-3.475 3.565-1.233 2.778-2.012-2.576-2.549-4.057-.407-4.493-2.66-.663-3.426 3.518-.703 3.714-1.214 1.504-3.926-1.35-1.657-1.501-1.685-1.031-.191.353 1.122.023 1.75-.918 1.75-.808 0-1.469-.415-1.469-.923 0-1.573-5.101-7.077-6.559-7.077-.975 0-.655 1.069 1.089 3.64m-110.852 1.328c-10.437 3.335-17.183 9.473-22.161 20.166-3.522 7.566-3.416 7.806 2.719 6.215 7.009-1.818 8.273-1.186 2.174 1.088-2.701 1.006-6.373 2.918-8.16 4.247-3.013 2.242-3.25 2.839-3.25 8.2 0 3.181.273 6.056.606 6.389.334.334 1.544-.266 2.689-1.333S84.892 62 85.521 62c.775 0 .996-1.773.687-5.5-.265-3.199-.05-5.5.514-5.5.533 0 .927 1.987.874 4.416-.053 2.429.182 4.695.522 5.035.34.34 2.59.164 5-.392 18.504-4.266 45.528 3.634 61.034 17.843 3.616 3.314 7.158 7.433 7.871 9.153 1.127 2.721 1.421 2.903 2.263 1.398 1.524-2.723 3.689-11.628 3.702-15.225.015-4.127-5.679-10.562-14.368-16.24-3.357-2.194-5.755-3.988-5.328-3.988 1.373 0 11.109 5.15 14.391 7.612 1.751 1.313 3.502 2.388 3.891 2.388.389 0 .469-3.832.177-8.516-.399-6.384-1.186-9.853-3.146-13.859-3.111-6.358-11.331-14.439-18.259-17.95-11.346-5.749-26.584-7.249-37.668-3.707m9.565 1.282c-1.768 2.208-5.426 9.981-4.396 9.345 1.541-.953 7.244-10.595 6.266-10.595-.477 0-1.319.563-1.87 1.25m-9.205 2.866c-3.393 3.393-7.36 10.418-6.812 12.062.189.566 1.591-1.264 3.117-4.067s3.913-6.45 5.304-8.104c3.301-3.922 2.359-3.859-1.609.109m21.422-1.856c.267.968 1.06 4.793 1.762 8.5 1.232 6.502 1.288 6.591 1.583 2.531.199-2.739-.417-5.709-1.762-8.5-1.138-2.36-1.85-3.499-1.583-2.531m7.143 5.049c1.428 3.194 2.84 8.482 3.136 11.75.296 3.267.988 5.941 1.538 5.941 1.5 0-.013-10.635-2.193-15.421-1.022-2.243-2.583-4.979-3.469-6.079-.908-1.128-.478.531.988 3.809m20.897-3.503c1.1 1.127 6.824 4.467 12.72 7.421 10.208 5.115 11.78 5.4 11.78 2.13 0-.775-20.219-10.166-23.5-10.915l-3-.685 2 2.049m-57.492 4.683c-2.96 4.302-6.059 11.519-5.962 13.887.025.618 1.385-1.772 3.022-5.311 1.637-3.539 4.114-7.926 5.505-9.75 1.391-1.823 2.077-3.315 1.526-3.315-.552 0-2.393 2.02-4.091 4.489M141.318 25c3.248 4.641 6.782 12.881 8.239 19.209l1.448 6.291-.4-6.168c-.429-6.614-4.851-16.528-8.931-20.026l-2.106-1.806 1.75 2.5m-46.713 3.991c-4.118 4.402-9.319 13.628-8.273 14.674 1.281 1.281 3.961-1.693 6.591-7.315 1.668-3.563 3.972-7.799 5.122-9.414 3.084-4.33 1.835-3.584-3.44 2.055m54.719.662c4.254 5.96 6.676 12.903 6.676 19.139 0 4.549.171 4.826 4.642 7.526l4.642 2.804-.513-6.311c-.281-3.471-1.513-8.433-2.736-11.027-2.668-5.66-8.62-12.591-12.992-15.131l-3.178-1.846 3.459 4.846m65.422-3.516c-4.223.938-13.273 5.289-14.234 6.844-1.671 2.703 1.022 2.737 5.786.072 2.861-1.6 6.894-3.218 8.963-3.595 2.069-.376 4.032-1.123 4.363-1.658 1.094-1.771-1.069-2.508-4.878-1.663m-1.103 7.418C208.059 35.602 203 38.943 203 40.582c0 1.92.89 1.787 5-.75 1.925-1.188 5.956-2.93 8.958-3.87 3.002-.941 5.627-2.217 5.833-2.836.515-1.544-4.394-1.314-9.148.429m-43.6 5.7c1.624 3.434 3.291 6.354 3.705 6.489.414.135 2.102-.875 3.752-2.245 2.957-2.455 2.972-2.513 1-4.074-1.1-.872-4.117-2.671-6.705-3.999l-4.704-2.414 2.952 6.243m43.325 2.12c-3.922 1.889-7.417 3.896-7.766 4.46-1.41 2.282 1.62 2.086 6.575-.425 2.889-1.464 6.989-3.167 9.112-3.786 2.123-.618 3.84-1.574 3.816-2.124-.093-2.17-4.946-1.394-11.737 1.875m-35.618 5.709c-2.613 2.24-4.75 4.937-4.75 5.994 0 2.636.646 2.453 5.565-1.578 2.35-1.925 4.44-3.5 4.645-3.5.205 0 1.688 3.795 3.296 8.434 3.415 9.85 3.438 9.792-6.468 16.206-5.347 3.462-5.764 4.023-6.851 9.205-.637 3.035-.995 5.681-.796 5.88.199.198 5.93-2.721 12.735-6.489 11.09-6.139 12.339-7.104 12.038-9.293-.186-1.344-.748-2.871-1.25-3.393-.503-.523-.914-1.705-.914-2.628 0-.922-.704-2.261-1.564-2.975-.993-.824-1.352-2.148-.981-3.623.418-1.668.154-2.324-.936-2.324-1.436 0-1.923-1.084-1.624-3.617.072-.614-.55-1.681-1.382-2.372-.832-.691-1.527-1.988-1.545-2.883-.037-1.904-2.292-5.131-3.578-5.122-.49.004-3.027 1.839-5.64 4.078m-77.722 1.342c-1.27 3.34-1.331 7.269-.124 8.014.795.492 2.16-9.332 1.435-10.329-.156-.213-.746.828-1.311 2.315m-8.545 2.824c-.334 1.788-.158 4.375.391 5.75.846 2.116 1.009 1.616 1.063-3.25.07-6.401-.531-7.435-1.454-2.5m38.398 3.192c-.89 3.057-1.282 5.558-.871 5.558 1.277 0 3.16-5.649 2.817-8.45-.264-2.151-.639-1.594-1.946 2.892M226 50.943c-4.259 1.298-15 7.035-15 8.012 0 1.962 1.767 1.837 5.712-.403 2.254-1.281 6.414-3.097 9.244-4.037s4.982-2.2 4.782-2.8c-.491-1.473-1.759-1.68-4.738-.772M81.75 52.712c-1.749 1.945-2.446 8.74-.989 9.64.419.259 1.431-.052 2.25-.691 1.095-.854 1.357-2.448.989-6.028-.485-4.722-.552-4.809-2.25-2.921m61.17 7.152c-1.213 4.682-1.277 5.847-.276 5.017 1.441-1.196 2.733-6.719 2.199-9.398-.189-.945-1.054 1.027-1.923 4.381m85.051-2.379C221.226 59.888 214 64.042 214 65.517c0 1.947-.27 2.013 8.14-2.017 4.017-1.925 7.852-3.5 8.523-3.5.67 0 1.521-.489 1.891-1.087 1.234-1.998-1.016-2.699-4.583-1.428M179 59c-2.461.788-2.454.803.5.943l3 .142-4.5 3.955c-2.475 2.175-4.001 3.956-3.391 3.957 1.402.004 10.391-7.853 10.391-9.082 0-1.075-2.488-1.04-6 .085m-27.187 6.676c-.927 3.181-1.523 5.947-1.323 6.147.921.921 3.593-6.279 3.319-8.94-.268-2.589-.535-2.214-1.996 2.793M241 60.551c0 .394.525 2.47 1.167 4.612 1.05 3.504.94 4.201-1.093 6.95-2.047 2.77-2.076 2.958-.304 2.01 2.935-1.571 4.678-6.571 3.6-10.328-.784-2.733-3.37-5.223-3.37-3.244m-5.428 1.332c-.365.592-.194 1.955.382 3.031 1.734 3.24 1.191 6.76-1.543 10.009-3.402 4.043-1.457 3.969 2.612-.1 2.853-2.853 3.111-3.59 2.53-7.25-.702-4.429-2.857-7.509-3.981-5.69M97.5 62.634c-1.65.254-5.422 1.145-8.381 1.98l-5.382 1.518.58 6.684c.319 3.676.34 6.119.046 5.428-.952-2.241-2.363-.218-2.363 3.388 0 2.82.771 4.206 3.904 7.019 2.147 1.927 4.149 4.482 4.45 5.677.5 1.987.435 2.023-.764.422-.721-.963-1.486-1.75-1.7-1.75-.215.001-.539 5.288-.721 11.75-.336 11.921.284 13.226 2.732 5.75.721-2.2 2.64-5.696 4.266-7.768 2.007-2.559 2.754-4.404 2.327-5.75-.346-1.09-.318-2.96.061-4.155l.69-2.173 1.16 2.169c1.079 2.017 1.252 1.836 2.455-2.577 2.38-8.73 3.206-9.255 2.753-1.752-.618 10.252 1.251 12.471 7.43 8.821 2.266-1.338 3.351-1.457 5.282-.577 2.685 1.224 4.651.101 4.705-2.688.025-1.276.211-1.241 1.05.2.64 1.099.675 2.365.094 3.404-.69 1.233-.073 2.771 2.424 6.042 1.842 2.414 4.142 6.62 5.111 9.346.968 2.727 2.078 4.958 2.465 4.958.388 0 .845-1.687 1.016-3.75l.31-3.75 1.877 3.5c1.033 1.925 2.021 3.664 2.198 3.864.176.2 1.905-.616 3.843-1.813 4.373-2.703 5.569-6.553 5.576-17.956.006-8.315.027-8.386 1.987-6.612 2.366 2.141 4.117 1.11 6.053-3.564 1.152-2.783 1.026-3.25-1.643-6.072-2.936-3.104-13.031-10.388-15.951-11.508-.962-.37-.571.495.98 2.169 3.509 3.787 3.242 4.805-.67 2.555-4.058-2.334-8.833-3.328-10.581-2.202-.959.618-.541 1.018 1.5 1.436 1.557.318 3.731 1.298 4.831 2.177 1.866 1.492 1.417 1.58-6.679 1.312-8.212-.271-8.594-.192-7.095 1.464 2.113 2.335.757 2.212-3.306-.3-1.824-1.127-3.617-3.039-3.983-4.25-.367-1.21-1.58-3.198-2.696-4.417l-2.028-2.218 3.125 1.18c2.413.911 4.158.903 7.658-.033 2.493-.666 6.401-1.212 8.685-1.212 5.393 0 4.609-.628-3.796-3.039-6.918-1.985-20.295-3.188-25.885-2.327m59.913 2.98c-.382 1.587-1.345 4.178-2.142 5.758-1.402 2.779-1.321 3.004 2.512 7 2.178 2.27 4.415 4.99 4.97 6.043.822 1.556 1.235.588 2.206-5.172 1.326-7.862.993-9.049-3.82-13.629l-3.033-2.886-.693 2.886m71.194 3.7c.598 5.09.488 5.428-2.617 8.041-1.783 1.5-2.934 3.034-2.559 3.409 1.008 1.008 5.581-1.868 7.87-4.95 1.814-2.444 1.879-3.099.717-7.25-1.87-6.678-4.223-6.161-3.411.75M87 67c-1.1 1.1-2 2.985-2 4.189v2.188l2.039-2.188c2.344-2.516 2.659-2.563 5.727-.86 2.225 1.236 2.199 1.282-1.492 2.617-3.273 1.183-3.501 1.458-1.766 2.136 1.096.428 4.199.809 6.897.848l4.905.07-1.905 2.211-1.905 2.211 2.949-1.865c2.001-1.265 3.072-1.493 3.333-.71.212.634.823 1.153 1.359 1.153.545 0 .847-2.32.685-5.272l-.289-5.272-3.228.377c-2.199.256-4.08-.295-5.903-1.728C93.042 64.458 89.58 64.42 87 67m146.746 13.625c-1.56.818-2.746 2.279-2.746 3.384 0 2.173-2.654 4.13-8.25 6.084-2.062.72-3.75 1.668-3.75 2.108 0 1.207 1.007 1.016 9.075-1.714 7.784-2.635 9.925-4.386 9.925-8.119 0-3.041-.997-3.449-4.254-1.743M112.133 84.5c-.049 3.367.219 4.504.818 3.48.494-.843.526-3.069.072-5-.788-3.352-.821-3.297-.89 1.52m111.617.662c-2.92 1.067-3.73 2.838-1.297 2.838 2.067 0 6.547-2.163 6.547-3.161 0-1.063-1.747-.956-5.25.323m-82.052 5.366c-1.541 1.356-4.615 2.755-6.831 3.109-4.128.66-3.605 2.316.741 2.348 1.648.012 2.331.941 3.13 4.265l1.022 4.25.12-4.356c.084-3.065.861-5.236 2.62-7.326 1.375-1.634 2.5-3.387 2.5-3.895 0-1.257-.108-1.204-3.302 1.605m16.841 7.409c-.318.515.159 5.671 1.06 11.458.902 5.787 1.343 12.103.98 14.034-.721 3.843-4.103 8.384-8.663 11.631l-2.927 2.084-.844-2.281c-.775-2.095-.899-1.986-1.525 1.347-.512 2.73-1.554 4.143-4.207 5.709-4.718 2.783-5.074 2.683-5.917-1.669l-.727-3.75-1.277 4.935c-1.452 5.612-2.664 6.734-10.432 9.653-4.249 1.597-7.211 2.001-12.56 1.713-9.266-.498-12.528-2.202-13.977-7.301l-1.138-4-1.038 3-1.038 3-4.251-4.229c-4.214-4.192-4.245-4.276-3.542-9.5.805-5.978-.053-6.151-1.277-.257l-.81 3.895-2.771-4.729c-1.524-2.6-3.106-6.63-3.517-8.954-.702-3.973-.789-4.063-1.455-1.507-.942 3.614.856 11.306 3.832 16.394 3.338 5.707 8.246 9.743 17.514 14.403 9.23 4.641 11.202 7.477 13.169 18.948.666 3.886 1.622 6.928 2.123 6.761.502-.167 2.159-3.724 3.683-7.904 4.707-12.912 6.969-15.423 20.993-23.314 19.958-11.23 24.481-15.937 26.241-27.311.968-6.254.84-7.782-1.268-15.078-2.244-7.766-3.158-9.246-4.434-7.181m-52.089 9.992c-.523.51-2.522 1.073-4.443 1.25-2.686.247-3.804.974-4.84 3.145-.741 1.553-1.08 3.885-.755 5.183.703 2.798 4.089 4.152 6.136 2.453 1.952-1.62 1.834-2.96-.262-2.96-1.614 0-1.615-.1-.015-1.7.958-.958 3.241-1.7 5.229-1.7s4.271.742 5.229 1.7c1.167 1.168 1.298 1.7.416 1.7-.76 0-1.154.919-.965 2.25.415 2.921 4.671 3.675 6.514 1.154 3.107-4.249.801-9.849-4.514-10.963-1.474-.309-3.461-.985-4.416-1.501-2.133-1.154-2.145-1.154-3.314-.011m61.298 11.919c-1.024 11.29-6.438 17.984-21.748 26.891-20.614 11.992-21.196 12.575-26.407 26.417l-2.497 6.635 1.952 5.34c1.074 2.938 1.952 5.46 1.952 5.605 0 .145.366.264.813.264.447 0 .915-2.137 1.039-4.75.293-6.151 1.836-7.25 10.184-7.25 7.956 0 9.672 1.354 10.144 8.002l.32 4.498 2.162-5.823c1.419-3.823 1.736-5.66.924-5.348-.68.261-2.067-1.067-3.082-2.951-3.919-7.278-11.948-9.4-17.593-4.65l-3.242 2.729.712-2.979c.391-1.638 1.865-5.373 3.274-8.301 3.966-8.235 8.672-8.789 13.404-1.577 1.408 2.145 3.409 5.925 4.447 8.4 1.038 2.475 2.009 4.672 2.157 4.883.148.211 2.526-1.337 5.283-3.44 9.405-7.172 20.055-22.328 23.971-34.113 1.906-5.736 1.944-6.473.534-10.468-1.629-4.618-5.934-12.425-7.326-13.285-.469-.289-1.088 2.082-1.377 5.271m2.246 1.179c-.012 3.409-2.281 9.198-5.447 13.903l-3.387 5.034 3.667-2.492c2.124-1.443 3.817-2.041 4.023-1.421.628 1.884-1.882 10.148-5.441 17.912-3.013 6.57-3.143 7.152-1.016 4.537 3.036-3.734 8.816-14.366 11.426-21.017 1.828-4.661 1.861-5.334.454-9.5-1.749-5.178-4.27-9.277-4.279-6.956m-99.529 7.975c-2.23 6.592-2.243 14.39-.038 23.084C72.402 159.87 77.041 172 78.043 172c.4 0 1.512-1.238 2.471-2.75 7.496-11.816 13.919-10.96 16.374 2.182l.823 4.404-3.223-3.418c-4.383-4.646-6.917-4.418-12.039 1.082-2.305 2.475-4.496 4.5-4.869 4.5-1.576 0-7.865-15.522-10.337-25.511l-2.673-10.802-1.398 3.407c-2.155 5.248-5.966 20.966-6.738 27.784L55.742 179h4.195c2.307 0 5.038.451 6.068 1.003 1.281.685 2.083.663 2.537-.071.42-.68 4.932-1.018 12.311-.922 6.406.084 13.58.116 15.942.071l4.296-.081-.695-3.75c-1.909-10.306-4.166-14.346-12.169-21.78-8.802-8.177-12.769-14.611-14.627-23.719l-1.275-6.247-1.86 5.498m-21.296 1.63c-4.032 1.946-7.129 3.741-6.882 3.988.544.545 15.713-6.274 15.713-7.063 0-1.001-1.398-.514-8.831 3.075m21.465 3.447c-.998 4.993-.617 9.864 1.365 17.421l1.836 7-.555-7.75c-.555-7.731-.032-9.005 2.667-6.5 1.53 1.419 1.611 1.691-2.254-7.546-2.424-5.796-2.425-5.796-3.059-2.625m109.305 3.146c-2.936 10.906-11.668 24.418-22.311 34.525l-7.634 7.25h16.784l3.534-7.441c4.679-9.853 10.718-18.656 18.088-26.367 6.621-6.928 6.646-6.638-.9-10.239-5.627-2.685-6.278-2.49-7.561 2.272m9.365 11.04c-6.891 7.286-13.947 18.406-17.336 27.318-1.605 4.223-.098 2.608 2.644-2.833 4.037-8.009 11.177-18.823 15.172-22.982 1.972-2.052 3.36-3.958 3.083-4.235-.277-.277-1.88.953-3.563 2.732m-134.209 5.163c-1.746 5.652-3.017 11.962-4.49 22.292-.174 1.221.069 1.982.539 1.691.471-.291.856-1.373.856-2.404s1.33-7.624 2.956-14.651 2.783-12.95 2.57-13.163c-.212-.212-1.306 2.593-2.431 6.235M20 190.071c0 4.271.482 6.554 1.625 7.696 1.407 1.407 1.564 3.833 1.173 18.121-.312 11.378-.816 16.618-1.625 16.888-.734.244-1.173 2.779-1.173 6.77v6.38l18.5-.069 18.5-.068v-6.695c0-3.681-.501-7.195-1.113-7.807-1.468-1.468-.266-3.287 2.172-3.287 1.307 0 1.941.688 1.941 2.107 0 1.276-.493 1.917-1.25 1.624-.948-.366-1.17 1.303-.92 6.912l.329 7.394 12.671-.269 12.67-.268.298-6.25c.185-3.879-.1-6.25-.75-6.25-.614 0-1.048-2.484-1.048-6 0-3.3.434-6 .965-6 2.188 0 3.284 4.487 2.725 11.156-.313 3.74-.182 7.04.293 7.334.475.293 1.151 1.846 1.504 3.45l.641 2.918 9.936-.057 9.936-.056v-6.314c0-3.472-.45-6.591-1-6.931-1.229-.76-1.344-11.5-.122-11.5 2.233 0 3.222 3.268 3.077 10.168-.1 4.746.397 8.612 1.408 10.961l1.563 3.629 16.287-.129 16.287-.129-.342-6.25c-.197-3.601.069-6.25.627-6.25 1.094 0 5.215 9.035 5.215 11.435 0 1.207 1.121 1.565 4.893 1.565 4.981 0 6.102-.886 6.111-4.832.002-.917.952-3.223 2.11-5.124 1.91-3.132 2.12-5.067 2.247-20.666.076-9.465.484-17.555.906-17.977.421-.422 1.24-.294 1.819.285 1.587 1.587.802 34.521-.836 35.065-.827.275-1.25 2.59-1.25 6.845v6.429l30.509-.124 30.509-.123.619-2.639c.341-1.452 1.379-3.989 2.307-5.639 1.29-2.294 1.652-5.234 1.54-12.5-.177-11.42-2.421-17.721-6.484-18.203-2.274-.27-2.5-.726-2.5-5.047 0-5.601 1.863-6.895 2.304-1.601.289 3.457.487 3.645 3.75 3.552l3.446-.097V184.14l-6.938-.022-6.938-.022-1.193 3.702c-.655 2.036-1.534 4.152-1.953 4.702-.419.55-.642 5.5-.496 11 .319 12.053 2.463 18.5 6.151 18.5 2.594 0 3.751 2.763 3.195 7.629-.499 4.369-3.328 3.779-3.328-.695 0-3.373-.176-3.562-3.268-3.5l-3.269.066.588 5.5c.323 3.025.151 7.3-.381 9.5-.797 3.289-.987 1.763-1.07-8.583l-.1-12.584-3.25-.015c-1.787-.009-3.581.479-3.985 1.083-.404.605-.741-1.508-.75-4.695-.01-4.062.359-5.745 1.235-5.631.688.089 2.488.109 4 .043L214 210v-26h-47.176l.669 3.958c1.558 9.223-2.046 9.916-5.019.965L160.839 184h-4.761c-4.737 0-4.768.022-6.023 4.25-.694 2.338-1.758 4.858-2.365 5.601-.706.865-1.119 7.598-1.147 18.7-.031 12.371-.397 17.703-1.276 18.582-.679.679-1.496.972-1.816.651-1.178-1.178-3.418-16.712-4.618-32.034L137.599 184h-9.419l-.634 8.75c-.825 11.407-3.337 31.932-4.375 35.75-.448 1.65-1.182 2.849-1.631 2.665-.449-.185-1.204.265-1.678 1-1.682 2.606-2.991-1.389-2.429-7.415.311-3.339.138-5.75-.413-5.75-.522 0-1.454-.942-2.07-2.094-.912-1.703-.755-2.498.836-4.25 2.754-3.033 2.814-16.056.1-21.381-1.038-2.034-1.886-4.503-1.886-5.486 0-1.582-1.011-1.789-8.75-1.789H96.5l-.135 6.462c-.09 4.339.238 6.392 1 6.25.768-.144 1.238 3.02 1.453 9.788.39 12.249-.673 26.707-1.908 25.944-.501-.309-.991 2.052-1.09 5.247l-.18 5.809-.384-4.975c-.211-2.736-.839-5.522-1.395-6.193-.556-.67-.896-3.706-.755-6.746.187-4.047-.195-6.026-1.425-7.386-2.131-2.355-2.117-3.496.069-5.473 2.328-2.107 2.335-15.867.011-21.422-.875-2.093-1.84-4.592-2.145-5.555-.47-1.487-1.837-1.75-9.085-1.75H72v6.559c0 3.607.395 6.315.878 6.016 1.672-1.033 2.183 5.988 1.506 20.675-.67 14.513-.717 14.75-2.973 14.75-1.261 0-2.534-.39-2.829-.867-1.233-1.996-3.805-21.562-4.42-33.633l-.662-13-5.095-.297-5.094-.297-.611 11.297c-.556 10.269-2.871 28.647-4.354 34.555-.369 1.469-1.113 2.162-1.969 1.833-.758-.291-1.377-.092-1.377.44 0 .533-.377.969-.838.969-1.044 0-7.197-18.671-7.177-21.779.018-2.794 5.666-14.221 7.029-14.221.547 0 .986-2.897.986-6.5V184H20v6.071m12.189.596c-.104 3.391-.572 6.316-1.041 6.5-.468.183-1.11 3.933-1.427 8.333-.506 7.033-.415 7.698.751 5.5 2.688-5.065 4.869-13.171 3.732-13.874-.6-.371-1.256-3.363-1.458-6.65l-.368-5.976-.189 6.167m147 0c-.104 3.391-.579 6.316-1.055 6.5-.476.183-1.083 3.805-1.347 8.048-.265 4.243-.178 7.527.193 7.297.371-.229 1.761-3.607 3.089-7.506 1.785-5.245 2.105-7.28 1.229-7.822-.652-.403-1.35-3.421-1.552-6.708l-.368-5.976-.189 6.167m13 .083c-.104 3.438-.616 6.25-1.138 6.25-.522 0-2.378 2.994-4.125 6.654-3.029 6.347-3.12 6.889-1.981 11.75 2.413 10.303 5.394 16.891 7.805 17.249 2.174.323 2.257.038 2.468-8.409.32-12.874-.325-26.669-1.274-27.268-.457-.288-.996-3.213-1.198-6.5l-.368-5.976-.189 6.25m-109.572 6.806c-.898 2.34-.756 10.444.183 10.444 1.818 0 3.2-2.625 3.2-6.078 0-4.107-2.329-7.113-3.383-4.366m24.381.949c-1.5 3.945-1.269 9.495.395 9.495 1.793 0 2.607-2.194 2.607-7.023 0-4.702-1.641-6.053-3.002-2.472M204.2 197.2c-.66.66-1.2 3.308-1.2 5.883 0 4.256.239 4.729 2.614 5.184 2.6.497 2.612.47 2.165-4.919-.497-5.988-1.69-8.037-3.579-6.148m-49.743 4.24c-.86 5.734-.203 29.149.847 30.198 1.882 1.881 2.666-3.035 2.681-16.806.008-8.068-.258-15.38-.592-16.25-1.083-2.822-2.256-1.681-2.936 2.858M43.9 206.734c-1.798 4.193-1.888 5.237-.792 9.15.975 3.483 1.385 4.016 1.938 2.517 1.011-2.736 2.277-16.401 1.52-16.401-.35 0-1.55 2.13-2.666 4.734M189 211.5c0 .825.45 1.5 1 1.5s1-.675 1-1.5-.45-1.5-1-1.5-1 .675-1 1.5M57.158 215c0 1.375.227 1.938.504 1.25.278-.687.278-1.812 0-2.5-.277-.687-.504-.125-.504 1.25m73.842-.059c0 1.132.45 2.059 1 2.059s1-.648 1-1.441-.45-1.719-1-2.059c-.55-.34-1 .309-1 1.441m-100.627 9.571c-.544 1.643-.679 4.338-.299 5.988.379 1.65.771 5.25.871 8 .161 4.425.297 4.712 1.187 2.5.553-1.375.828-3.738.61-5.25-.218-1.512-.024-2.75.431-2.75 1.236 0 .914-5.084-.537-8.488l-1.274-2.988-.989 2.988m147.234-.93c-.334.87-.607 3.393-.607 5.607 0 3.006.348 3.891 1.376 3.497 1.113-.427 1.205.231.482 3.45-.506 2.252-.518 4.649-.028 5.524 1.29 2.306 2.435-13.833 1.209-17.056-1.147-3.017-1.594-3.205-2.432-1.022M203 225.918c0 4.794.805 7.082 2.49 7.082 1.478 0 2.477-3.101 2.496-7.75.012-2.804-.329-3.25-2.486-3.25-2.241 0-2.5.405-2.5 3.918m-73 4.189c0 1.378.476 1.924 1.377 1.579 1.069-.41 1.229.181.714 2.643-.364 1.744-.368 4.746-.008 6.671.536 2.868.678 2.381.785-2.691.073-3.405.562-6.457 1.088-6.782 1.526-.943.015-3.527-2.063-3.527-1.258 0-1.893.706-1.893 2.107M71.286 237.5c.008 2.75.202 3.756.432 2.236.229-1.52.223-3.77-.014-5-.237-1.23-.425.014-.418 2.764m-26 1c.008 2.75.202 3.756.432 2.236.229-1.52.223-3.77-.014-5-.237-1.23-.425.014-.418 2.764m147.014.5c0 3.025.187 4.262.416 2.75.229-1.512.229-3.988 0-5.5s-.416-.275-.416 2.75m-73.068-1c0 1.925.206 2.713.457 1.75.252-.963.252-2.537 0-3.5-.251-.963-.457-.175-.457 1.75" fill="#f2ecce" fill-rule="evenodd"/><path fill-opacity=".348" d="M124.121 10.725c-2.401 2.401-4.124 3.095-8.939 3.598-16.59 1.734-28.415 11.415-34.089 27.908-1.055 3.064-2.697 6.761-3.65 8.216-2.463 3.758-1.465 18.833 1.452 21.948 1.538 1.642 1.741 2.517.922 3.975-1.414 2.517-.442 10.282 1.565 12.499 1.956 2.162 2.052 7.061.257 13.131-1.557 5.267.473 4.091-30.389 17.605C33.846 127.226 29 129.749 29 131.188c0 2.142-2.957 3.22 26.217-9.555C66.061 116.885 75.196 113 75.518 113c.321 0-.511 1.462-1.849 3.25-2.809 3.753-5.947 9.584-6.309 11.723-.383 2.271-1.979 3.116-19.766 10.473-14.025 5.801-16.592 7.188-16.579 8.959.026 3.509 1.31 4.453 6.504 4.781 3.815.24 4.901.665 4.638 1.814-3.72 16.256-3.702 15.998-1.359 20.07 2.67 4.639 2.692 4.93.368 4.93-2.304 0-9.071-13.941-12.378-25.5-1.981-6.926-2.288-10.283-2.288-25 0-18.993 1.356-25.826 7.961-40.122 7.225-15.637 21.315-31.931 35.604-41.172 5.444-3.521 6.906-5.078 8.657-9.221 1.158-2.742 1.807-4.979 1.442-4.971-1.643.035-15.925 8.457-21.023 12.397-38.107 29.454-51.348 80.374-32.513 125.032 1.854 4.398 3.372 8.122 3.372 8.277 0 .154-1.113.28-2.474.28-2.923 0-4.023-1.859-8.324-14.069-9.728-27.618-7.838-57.993 5.253-84.431 6.43-12.988 12.702-21.546 22.864-31.198 9.443-8.97 17.287-14.281 30.204-20.452 5.656-2.701 10.832-5.573 11.503-6.381 1.631-1.966 1.126-1.885-6.753 1.079-25.522 9.6-48.656 30.908-60.746 55.952-14.187 29.387-14.986 64.793-2.119 93.889 2.295 5.188 2.344 5.611.659 5.611-1.002 0-2.393.687-3.09 1.528-1.702 2.051-1.908 18.209-.259 20.373 1.912 2.509 1.727 25.485-.218 27.099-2.158 1.791-2.153 19.213.007 21.006 1.181.98 24.113 1.289 106.25 1.429 57.609.098 105.743-.168 106.965-.593 1.29-.448 2.493-1.939 2.868-3.557.356-1.532 1.628-4.585 2.828-6.785 1.894-3.473 2.166-5.449 2.065-15-.081-7.651-.553-11.694-1.55-13.281-1.245-1.981-1.244-2.398.007-3.176 1.117-.695 1.472-3.735 1.582-13.566.162-14.436-.287-15.477-6.677-15.477-2.206 0-3.84-.338-3.629-.75 11.178-21.924 15.748-41.548 14.474-62.148-.594-9.603-2.951-22.959-4.56-25.833-1.893-3.384-1.937.908-.099 9.814 4.97 24.091.793 52.851-10.772 74.167-2.265 4.176-2.973 4.75-5.853 4.75h-3.276l3.909-6.69c8.445-14.451 13.283-32.989 13.392-51.31.063-10.576-1.704-25.205-3.37-27.901-.511-.827-1.533-.83-3.877-.013-1.751.61-3.184 1.29-3.184 1.511 0 .221.727 4.565 1.617 9.653 2.005 11.475 1.362 27.549-1.591 39.75-2.415 9.977-11.98 30.032-15.73 32.982-2.199 1.729-4.049 2.018-12.931 2.018-5.701 0-10.365-.259-10.365-.576 0-1.958 8.962-15.349 13.69-20.456 6.282-6.786 9.753-8.968 14.26-8.968 1.678 0 3.05-.45 3.05-1s-1.712-1-3.804-1c-3.04 0-4.49-.708-7.223-3.528-4.604-4.75-14.478-11.04-19.864-12.655-3.998-1.199-4.636-1.854-7.119-7.317-1.5-3.3-4.735-8.567-7.188-11.705-2.963-3.789-4.901-7.538-5.769-11.159-1.21-5.042-1.154-5.706.741-8.795 4.509-7.352 5.334-13.157 4.356-30.665-.82-14.693-1.163-16.725-3.702-21.935-3.63-7.448-11.673-15.252-19.889-19.296-5.271-2.596-6.539-3.673-6.539-5.559 0-2.923-3.602-5.389-8.914-6.101-3.461-.465-4.383-.141-6.965 2.44m1.546.942c-1.329 1.328-.608 2.115 2.333 2.546 1.65.242 3 .069 3-.386 0-1.374 2.227-.931 4.171.828 1.671 1.512 1.829 1.515 1.829.035 0-.891-.87-2.085-1.934-2.655-2.16-1.156-8.368-1.399-9.399-.368m92.744 5.41c1.424 1.692 2.589 3.69 2.589 4.441 0 2.865-2.023 2.419-4.216-.932-2.08-3.178-5.443-5.586-7.801-5.586-.507 0 .2 1.654 1.572 3.676 2.654 3.912 2.726 5.64.253 6.12-.915.178-2.035-.93-2.794-2.762-2.553-6.164-9.339-4.745-16.986 3.552-4.193 4.548-6.476 10.782-5.448 14.877.795 3.168 1.473 3.174 4.42.037 2.376-2.529 6-3.395 6-1.433 0 .587-1.575 2.553-3.5 4.368-1.925 1.816-3.5 4.124-3.5 5.129 0 1.48.655 1.194 3.434-1.5 2.356-2.283 3.979-3.119 5.17-2.662 1.494.573 1.225 1.189-1.934 4.424-4.707 4.82-4.817 7.151-.17 3.606l3.5-2.669v2.314c0 1.272-1.205 3.571-2.677 5.108-2.915 3.043-2.485 5.176.5 2.476 1.009-.914 2.137-1.661 2.506-1.661 1.285 0 .661 3.764-.829 5-1.585 1.315-2.055 4-.7 4 .44 0 1.325-.525 1.967-1.167 1.94-1.94 2.759 1.929.854 4.033-2.219 2.452-2.033 3.399.511 2.592 1.961-.622 2.081-.406 1.497 2.706-.407 2.167-.146 4.093.726 5.359.748 1.088 1.921 4.349 2.607 7.248 1.315 5.558 3.048 7.229 7.495 7.229 2.445 0 2.509-.125 1.149-2.25-.792-1.237-3.055-10.575-5.029-20.75-1.974-10.175-4.24-19.738-5.036-21.25-1.246-2.366-1.249-2.75-.026-2.75.813 0 1.19-.604.881-1.41-.638-1.662 12.348-8.366 17.068-8.811 4.079-.384 4.783 2.7.836 3.661-1.54.375-5.837 2.071-9.55 3.769-5.442 2.489-6.529 3.352-5.614 4.455.944 1.137 1.827.963 5.249-1.038 7.996-4.675 17.923-6.111 14.605-2.114-.679.818-1.931 1.488-2.783 1.488-.851 0-4.621 1.417-8.377 3.148-5.787 2.667-6.83 3.531-6.83 5.655 0 2.323.128 2.391 1.75.926 2.647-2.391 14.435-7.727 17.073-7.728 4.407-.002 1.917 3.137-4.323 5.451-3.3 1.224-7.575 3.085-9.5 4.136-1.925 1.052-3.61 1.947-3.744 1.99-.518.164 4.075 21.968 4.799 22.782 1.482 1.666 24.596-7.498 23.477-9.308-.28-.454.16-1.381.979-2.061 1.742-1.446 1.967-7.229.396-10.164-.79-1.477-.79-2.344 0-3.134 1.664-1.664 3.162.4 3.812 5.25.45 3.354.105 4.82-1.737 7.372l-2.299 3.185 2.607-2.376c3.421-3.118 4.197-7.022 2.3-11.563-1.425-3.409-1.783-3.631-5.529-3.41-2.204.13-4.356-.112-4.782-.539-1-.999 2.554-3.612 4.912-3.612.995 0 1.809-.484 1.809-1.076 0-.648-1.69-.955-4.24-.771-3.383.244-4.308-.046-4.575-1.433-.242-1.256.52-1.911 2.74-2.355 4.361-.872 3.814-2.365-.866-2.365-4.169 0-6.246-1.634-3.937-3.096.758-.481 2.417-.88 3.687-.889 1.282-.008 2.034-.46 1.691-1.015-.34-.55-2.424-1-4.632-1-3.283 0-3.954-.319-3.683-1.75.2-1.055 1.42-1.876 3.074-2.066 4.225-.488 3.244-2.033-1.509-2.377-5.295-.383-6.041-3.135-.981-3.622 4.496-.433 3.03-2.185-1.828-2.185-3.274 0-3.941-.338-3.941-2 0-1.551.667-2 2.969-2 2.284 0 2.83-.361 2.367-1.567-.426-1.111-.912-1.257-1.669-.5-1.66 1.66-2.326 1.303-3.683-1.973-1.2-2.895-4.437-5.96-6.295-5.96-.477 0 .298 1.385 1.722 3.077m-105.225.015c-12.113 2.074-22.851 10.38-27.754 21.467-2.924 6.61-3.107 8.776-.682 8.056 6.607-1.963 7.085-1.502 1.433 1.383-4.067 2.076-6.65 4.1-7.251 5.681-.801 2.106-.245 13.321.66 13.321.175 0 1.359-1.041 2.631-2.314 5.318-5.318 27.019-6.823 41.118-2.851 16.293 4.59 34.109 16.114 37.538 24.282.892 2.124 2.071 3.724 2.621 3.556 1.644-.501 4.409-9.82 4.456-15.019.055-6.019-1.891-8.932-10.072-15.082-3.345-2.514-5.838-4.572-5.54-4.572.871 0 7.875 4.185 11.406 6.816l3.25 2.421v-7.94c0-9.529-1.732-15.096-6.761-21.731-9.692-12.79-30.115-20.374-47.053-17.474m3.597 4.658c-1.898 2.176-4.07 6.296-3.578 6.788.202.202 1.577-1.636 3.056-4.085 2.855-4.726 3.016-5.562.522-2.703m-8.982 2c-2.514 2.688-5.813 8.357-5.789 9.95.007.44 1.165-1.225 2.574-3.7 1.41-2.475 3.508-5.512 4.663-6.75 1.155-1.238 1.88-2.25 1.612-2.25-.268 0-1.645 1.238-3.06 2.75m50.649-.805c1.04 1.149 6.202 4.197 11.471 6.773 5.268 2.576 9.861 4.837 10.206 5.025.345.188.875-.307 1.18-1.099.583-1.521-8.53-6.576-19.277-10.693l-5.471-2.096 1.891 2.09M94.493 29.25c-3.792 4.399-5.74 7.63-6.934 11.5-1.167 3.785 2.136 2.703 3.395-1.112.611-1.849 2.638-5.899 4.505-9S98.697 25 98.505 25c-.192 0-1.998 1.913-4.012 4.25m5.548-1.308c-2.433 3.418-5.361 10.071-4.715 10.717.243.244.96-1.042 1.592-2.858.633-1.816 2.266-4.988 3.63-7.051 2.927-4.426 2.526-5.066-.507-.808M131.218 27c.01 1.375.362 3.85.782 5.5l.763 3 .019-3c.01-1.65-.342-4.125-.782-5.5l-.801-2.5.019 2.5m80.154-.181c-6.016 2.101-10.25 4.701-11.049 6.782-1.058 2.758.644 2.735 5.814-.079 2.832-1.541 7.221-3.331 9.755-3.977 2.79-.712 4.608-1.742 4.608-2.61 0-2.105-3.314-2.147-9.128-.116m-67.562 1.865c2.424 3.458 4.809 9.507 6.235 15.816.875 3.867.889 3.834.419-1-.521-5.369-4.442-14.437-7.198-16.647-1.115-.894-.931-.273.544 1.831m4.882-.567c3.904 4.253 7.447 13.419 7.634 19.749.17 5.711.269 5.906 4.085 7.999 2.152 1.18 4.143 1.914 4.425 1.632.932-.931-1.71-12.605-3.855-17.035-2.291-4.733-8.464-11.599-12.158-13.523l-2.323-1.21 2.192 2.388m-10.086 1.722c.322 1.286.939 4.436 1.372 7l.787 4.661.072-4c.04-2.2-.577-5.35-1.372-7-1.024-2.126-1.275-2.319-.859-.661m75.507 3.22c-6.792 2.411-12.706 6.748-11.224 8.23.744.744 2.475.287 5.834-1.54 2.628-1.429 6.914-3.135 9.527-3.792 3.56-.895 4.75-1.666 4.75-3.076 0-2.349-1.876-2.311-8.887.178m-44.182 4.806c1.138 2.23 2.069 4.722 2.069 5.536 0 .815.373 1.712.829 1.994.856.528 7.123-3.418 7.154-4.506.009-.336-2.714-2.066-6.052-3.845l-6.069-3.235 2.069 4.056m8.818 8.809c-3.445 2.552-4.749 4.199-4.749 6 0 2.468.024 2.462 4.18-1.096 2.299-1.968 4.503-3.578 4.899-3.578 1.432 0 6.168 14.881 5.536 17.396-.405 1.617-2.89 3.946-7.137 6.693-4.542 2.938-6.687 5.001-7.08 6.813-.31 1.429-.978 3.908-1.485 5.51-.507 1.602-.804 3.03-.66 3.174.144.144 5.76-2.741 12.48-6.412 12.886-7.039 13.72-8.027 10.681-12.665-.873-1.332-1.328-2.84-1.011-3.352.316-.512-.095-1.486-.914-2.166C192.67 62.311 192 60.965 192 60c0-.965-.694-2.331-1.543-3.036-.848-.704-1.406-1.991-1.238-2.861.167-.869-.505-2.389-1.494-3.378-.989-.989-1.534-2.226-1.21-2.749.323-.522-.224-1.821-1.215-2.885-1.774-1.903-1.878-1.878-6.551 1.583M92.3 53c0 3.025.187 4.263.416 2.75.229-1.513.229-3.987 0-5.5S92.3 49.975 92.3 53m7.932-2c0 1.925.206 2.712.457 1.75.252-.962.252-2.538 0-3.5-.251-.962-.457-.175-.457 1.75m30.563 1.5c-.36 1.65-.94 3.9-1.289 5-.348 1.1.098.737.992-.807.894-1.545 1.475-3.795 1.289-5-.283-1.849-.439-1.722-.992.807m-49.36.959c-1.931 2.947-1.142 8.75 1.073 7.899.931-.357 1.339-2.113 1.263-5.442-.062-2.704-.25-4.916-.419-4.916-.168 0-1.031 1.107-1.917 2.459m4.817 2.041c.011 2.2.216 2.982.455 1.738.239-1.244.23-3.044-.02-4s-.446.062-.435 2.262m57.524 3c-.35 1.65-.899 3.9-1.221 5-.321 1.1.12.485.981-1.367.861-1.852 1.41-4.102 1.22-5-.199-.944-.613-.368-.98 1.367m82.923-.976C221.486 59.453 213 64.146 213 65.1c0 2.201 2.913 1.796 9.841-1.37 4.212-1.925 8.484-3.777 9.492-4.116 2.058-.69 1.766-3.011-.416-3.305-.779-.105-3.127.441-5.218 1.215m-74.374 7.499c-.647 2.453-.997 4.638-.778 4.857.72.72 2.55-5.206 2.248-7.283-.187-1.287-.727-.396-1.47 2.426m25.175-.353c-2.2 1.972-3.1 3.1-2 2.507 2.991-1.613 8.148-6.106 7-6.099-.55.003-2.8 1.619-5 3.592m57.851-.92c.33 1.513.872 3.696 1.203 4.853.405 1.414-.194 3.03-1.829 4.93l-2.431 2.827.44-3.003c.543-3.697-2.216-10.706-3.97-10.087-1.26.444-1.275 1.347-.12 7.458.521 2.753.149 3.634-2.517 5.973-1.72 1.509-3.127 3.094-3.127 3.522 0 1.369 3.476.832 5.983-.924 1.335-.935 3.311-1.765 4.391-1.845 2.813-.207 6.626-5.067 6.626-8.445C240 64.8 238.292 61 236.4 61c-1.279 0-1.515.618-1.049 2.75M95.5 62.649c-6.123 1.275-10.567 2.733-11.357 3.726-.492.619-.588 3.44-.212 6.27.502 3.779.369 5.024-.5 4.69-1.655-.635-2.63 4.013-1.477 7.043.526 1.385 2.12 3.28 3.542 4.211 1.422.932 3.091 2.643 3.708 3.803.975 1.83.923 1.943-.393.858-1.331-1.098-1.582-.118-2.048 8-.293 5.087-.308 10.713-.034 12.5.547 3.573 2.271 4.475 2.271 1.188 0-2.88 4.847-12.825 6.865-14.086 1.221-.762 1.586-2.159 1.36-5.197-.248-3.33-.093-3.808.782-2.405 1.878 3.009 2.824 1.949 3.569-4 .539-4.305.919-5.248 1.513-3.75.437 1.1.543 3.917.237 6.259-.879 6.737 2.215 8.917 8.229 5.797 1.903-.987 3.343-1.146 4.549-.5 2.713 1.452 3.872 1.145 4.943-1.306.846-1.937.931-1.771.612 1.197-.262 2.439.207 4.047 1.605 5.5 2.149 2.234 7.734 13.282 7.735 15.303.002 2.583 1.778 1.122 2.433-2l.681-3.25 1.71 3.231 1.709 3.232 3.186-1.937c4.591-2.792 6.214-6.765 6.939-16.98.513-7.229.873-8.703 1.81-7.423 1.029 1.408 1.488 1.219 3.851-1.589 4.22-5.016 3.603-7.255-3.568-12.935-12.581-9.967-30.031-16.208-44.69-15.983-4.158.064-8.46.303-9.56.533m62.478 1.905c-.012 1.07-.891 3.862-1.954 6.203l-1.932 4.257 2.53 1.658c1.391.911 3.559 3.173 4.818 5.025l2.288 3.367.625-3.782c1.429-8.648.863-11.68-2.853-15.282-2.983-2.891-3.503-3.105-3.522-1.446m-69.755 2.003C87 67.413 86 68.853 86 69.757c0 1.278.267 1.376 1.2.443 1.606-1.606 3.996-1.514 6.359.246 1.853 1.379 1.782 1.502-1.559 2.695-3.434 1.226-3.453 1.263-1 1.955 1.375.387 4.243.749 6.372.804 3.53.091 3.751.253 2.5 1.833-1.231 1.555-1.077 1.544 1.504-.106 2.358-1.507 3.03-1.594 3.734-.482 1.077 1.699 1.188-.404.265-5.02-.54-2.698-1.052-3.126-3.75-3.132-1.719-.003-4.475-.9-6.125-1.993-3.624-2.4-4.415-2.448-7.277-.443M120 69.135c-1.375.554-4.322.863-6.548.686l-4.049-.321 2.881 4.267c1.584 2.347 4.306 4.956 6.048 5.799l3.168 1.533-2.38-2.065-2.381-2.066 8.788.676c9.264.712 10.872-.367 3.95-2.652-1.923-.634-3.24-1.567-2.927-2.073.941-1.523 5.793-1.038 9.739.973 4.198 2.14 4.792 1.469 1.461-1.651-4.315-4.042-12.064-5.398-17.75-3.106M233.25 81.22c-1.238.597-2.25 1.862-2.25 2.81 0 2.322-2.326 4.136-7.875 6.142-2.746.994-3.775 1.704-2.532 1.75 2.529.094 13.149-3.463 15.048-5.039 1.412-1.172 1.927-6.934.609-6.815-.412.037-1.762.556-3 1.152M112.252 84.5c.011 2.2.216 2.982.455 1.738.239-1.244.23-3.044-.02-4s-.446.062-.435 2.262m111.998.747c-1.787.573-3.25 1.476-3.25 2.006 0 1.313 5.136-.028 6.964-1.819 1.667-1.632.909-1.67-3.714-.187m-83.75 6.821c-1.65 1.057-4.35 1.983-6 2.058-2.924.134-2.912.153.5.756 3.047.538 3.58 1.071 4.118 4.118l.619 3.5.131-4.25c.073-2.338.566-4.25 1.097-4.25.53 0 1.446-.9 2.035-2 1.27-2.372 1.312-2.374-2.5.068m18.576 5.341c-1.209 1.456-1.185 3.145.169 12.078 2.141 14.133 1.151 18.309-5.665 23.894l-4.244 3.477-1.012-2.679-1.011-2.679-.776 3.795c-.565 2.763-1.742 4.452-4.324 6.206-1.951 1.326-3.863 2.215-4.249 1.977-.386-.239-1.028-2.356-1.428-4.706l-.727-4.272-1.654 6.451-1.655 6.451-6 2.409c-8.182 3.284-15.89 3.885-22.343 1.741-4.625-1.536-5.222-2.08-6.177-5.626C96.869 141.798 95 140.591 95 144c0 2.74-1.241 2.512-4.894-.901-2.835-2.649-3.106-3.447-3.106-9.167 0-6.73-.919-7.295-1.942-1.193l-.63 3.761-2.809-4.75c-1.545-2.613-3.056-6.586-3.356-8.829-.651-4.852-2.224-3.347-2.248 2.151-.045 10.459 8.017 21.051 21.458 28.192 8.733 4.64 11.884 8.562 13.032 16.217 1.207 8.052 1.68 9.519 3.074 9.519.782 0 1.421-.465 1.421-1.032 0-2.847 6.585-17.564 9.182-20.522 1.633-1.861 8.448-6.518 15.144-10.35 20.337-11.639 24.655-16.672 25.387-29.596.303-5.355-.148-8.738-1.918-14.392-2.07-6.611-2.463-7.213-3.719-5.699M105.5 108c-1.1.473-3.222.891-4.715.93-3.125.081-4.785 2.503-4.785 6.981 0 3.857 4.112 7.071 6.505 5.085 1.813-1.504 1.983-4.99.245-5.011-.833-.011-.75-.339.25-.985 2.241-1.448 7.356-1.198 9.559.468 1.215.919 1.447 1.48.621 1.5-1.836.044-1.08 4.077 1.011 5.388 2.663 1.668 5.809-1.792 5.809-6.389 0-4.19-1.447-5.806-6.222-6.951-1.803-.432-3.953-1.031-4.778-1.331-.825-.3-2.4-.158-3.5.315m62.141 10.601c-1.85 13.501-7.375 20.06-25.187 29.899-14.286 7.892-18.317 11.929-22.347 22.379-2.829 7.336-3.048 8.628-2.072 12.253 2.608 9.682 4.965 11.592 4.965 4.023 0-6.624 1.845-8.155 9.829-8.155 7.686 0 10.171 1.969 10.171 8.059 0 5.09 1.334 4.391 3.004-1.574.703-2.511 2.125-5.019 3.159-5.572 1.034-.554 5.461-.9 9.836-.771 4.376.13 8.092.039 8.259-.203.166-.241 1.639-3.346 3.272-6.899 4.316-9.389 11.238-19.62 18.259-26.99 3.379-3.547 6.047-6.531 5.928-6.63-.119-.098-2.565-1.359-5.434-2.8-7.158-3.595-8.887-3.448-9.579.815-.738 4.548-6.829 16.572-12.238 24.159-4.811 6.749-14.026 15.61-18.8 18.079-2.902 1.5-3.156 1.484-4.129-.263-.57-1.024-2.454-3.335-4.187-5.136-2.636-2.74-3.879-3.274-7.615-3.274-2.976 0-5.328.678-7.051 2.034l-2.586 2.034 1.539-4.517c2.165-6.354 5.529-10.993 8.255-11.385 3.363-.483 7.514 3.965 10.702 11.468 1.488 3.501 3.224 6.366 3.856 6.366 1.948 0 12.144-9.687 17.118-16.263 6.534-8.639 12.938-22.173 12.886-27.237-.042-4.205-4.477-14.306-7.469-17.014-1.579-1.428-1.753-1.197-2.344 3.115m1.992 6.29c-.342 2.14-2.181 6.208-4.086 9.039l-3.463 5.147 2.862-2.039c1.575-1.121 3.131-2.038 3.458-2.038 2.275 0-1.748 14.655-5.948 21.672l-1.693 2.828 2.148-2.5c3.005-3.497 12.089-22.028 12.089-24.66 0-2.121-3.526-11.34-4.337-11.34-.224 0-.687 1.751-1.03 3.891m-99.598 4.935c-1.793 5.771-2.137 8.558-1.62 13.129.832 7.353 3.709 17.451 7.051 24.751l2.597 5.674 3.528-5.239c6.967-10.345 12.706-9.058 14.983 3.359l.733 4-2.742-3.25c-1.88-2.228-3.616-3.25-5.519-3.25-3.189 0-7.636 3.132-8.554 6.026-1.204 3.793-3.571 2.016-7.025-5.276C69.88 162.179 66 148.716 66 143.84c0-1.562-.43-2.84-.956-2.84-1.826 0-6.55 17.369-9.451 34.75L55.05 179h4.775c2.626 0 5.267.492 5.868 1.093.79.79 1.715.759 3.342-.112 1.465-.784 6.122-1.11 13.357-.937 17.274.416 18.608.273 18.608-1.992 0-1.072-1.125-5.511-2.501-9.865-2.19-6.935-3.007-8.267-6.589-10.749-9.153-6.344-15.968-16.674-18.293-27.731l-1.305-6.207-2.277 7.326M58 130.5c-2.475 1.325-4.05 2.41-3.5 2.41.55 0 3.025-1.085 5.5-2.41 2.475-1.325 4.05-2.41 3.5-2.41-.55 0-3.025 1.085-5.5 2.41m-9 .5c-1.925 1.054-3.05 1.916-2.5 1.916.55 0 2.575-.862 4.5-1.916 1.925-1.054 3.05-1.916 2.5-1.916-.55 0-2.575.862-4.5 1.916m21.595 5.085c-.317 2.428.04 7.34.795 10.915l1.372 6.5.119-5.872c.103-5.1.316-5.709 1.619-4.628 1.932 1.603 1.926 1.567-.919-5.415l-2.409-5.915-.577 4.415M49 134.5c-1.375.786-2.05 1.429-1.5 1.429.55 0 2.125-.643 3.5-1.429s2.05-1.429 1.5-1.429c-.55 0-2.125.643-3.5 1.429m141.36 12.736c-5.92 5.456-12.51 14.723-16.433 23.107-4.339 9.271-3.172 10.453 1.5 1.52 4.993-9.545 10.866-18.175 16.411-24.113 5.503-5.893 4.671-6.183-1.478-.514m-133.864 1.12c-3.255 7.79-8.611 36.618-5.6 30.144 1.196-2.574 8.006-32.87 7.507-33.404-.207-.221-1.065 1.245-1.907 3.26M20 190.057c0 3.962.429 6.943 1 6.943.63 0 1 6.656 1 17.969 0 13.963-.279 17.862-1.25 17.49-.926-.354-1.251 1.337-1.255 6.531L19.49 246H84v-7c0-4-.429-7-1-7-.555 0-.985-2.561-.967-5.75l.034-5.75 2.059 2.475c1.762 2.119 1.972 3.342 1.454 8.5-.408 4.062-.143 7.328.812 10.025l1.418 4 10.35.281 10.351.282-.006-7.019c-.003-4.688-.42-7.179-1.255-7.5-1.482-.571-1.752-10.544-.285-10.544 2.188 0 3.284 4.487 2.725 11.156-.313 3.74-.182 7.04.293 7.334.475.293 1.159 1.878 1.52 3.521l.656 2.989H146v-6.2c0-7.263 1.529-6.874 3.5.889l1.221 4.811h10.417l1.801-5.32c2.906-8.583 4.345-8.922 3.867-.912l-.403 6.769 30.848-.067c28.122-.06 30.899-.217 31.419-1.768.314-.936 1.456-3.612 2.537-5.947 2.896-6.251 2.714-19.871-.361-27.032-1.561-3.636-2.706-5.107-3.682-4.732-2.38.913-4.164-1.527-4.164-5.697 0-4.982 2.363-4.724 2.797.305.286 3.327.423 3.433 4 3.091l3.703-.355-.117-10.167-.118-10.168h-6.722c-3.696 0-7.041.225-7.431.5-.39.275-1.262 2.394-1.938 4.708-1.881 6.439-3.444 6.524-3.027.165l.353-5.373-23.75-.158-23.75-.157v6.607c0 7.71-1.217 7.428-4.049-.936l-1.789-5.285h-9.626l-1.842 4.965c-1.013 2.73-2.421 5.639-3.129 6.464-.971 1.131-1.092 3.47-.493 9.5.901 9.067-.096 27-1.5 27-.51 0-1.298-1.35-1.75-3-1.413-5.159-3.68-24.582-4.008-34.349-.354-10.534-1.028-11.505-7.606-10.959l-3.708.308-.678 12c-.739 13.09-3.114 30.539-4.697 34.5-.549 1.375-1.027 1.938-1.062 1.25-.034-.687-.54-1.25-1.122-1.25-.582 0-.8.419-.484.931.317.512.118 1.213-.441 1.559-.65.402-1.016-1.803-1.016-6.117 0-5.464-.397-7.166-2.09-8.969l-2.09-2.224 2.17-2.17c3.088-3.088 3.171-15.506.146-22.01-1.15-2.475-2.102-5-2.114-5.611-.022-1.127-7.441-2.364-14.272-2.38L96 183v7.559c0 4.785.367 7.332 1 6.941 1.01-.624 1.288 1.109 1.203 7.5-.026 1.925-.082 8.773-.125 15.219-.066 9.985-.3 11.633-1.578 11.143-.874-.336-1.513-.01-1.53.781-.019.842-.445.644-1.123-.523-.66-1.136-.842-4.005-.461-7.25.347-2.953.286-5.37-.137-5.37-.422 0-1.36-.948-2.083-2.106-1.135-1.818-1.049-2.4.631-4.25 2.743-3.021 2.797-16.057.089-21.369-1.038-2.034-1.886-4.44-1.886-5.347 0-1.704-5.837-2.9-14.25-2.919L72 183v7c0 4 .429 7 1 7 1.164 0 1.388 31.93.235 33.5-1.366 1.859-4.238 1.34-4.759-.86-1.432-6.042-3.561-23.5-4.136-33.91-.611-11.073-.781-11.803-2.874-12.328-1.223-.307-3.516-.411-5.095-.23-2.844.325-2.878.408-3.595 8.828-2.278 26.747-4.377 39.367-6.417 38.584-.811-.311-1.359.152-1.359 1.147 0 4.225-3.882-5.033-6.997-16.686-1.122-4.197-1-4.85 2.096-11.25 1.808-3.737 3.763-6.795 4.344-6.794.653 0 1-2.581.909-6.75l-.148-6.751-12.602-.193L20 183.113v6.944m12.3.943c0 3.025.187 4.262.416 2.75.229-1.512.229-3.988 0-5.5s-.416-.275-.416 2.75m146.986.5c.008 2.75.202 3.756.432 2.236.229-1.52.223-3.77-.014-5-.237-1.23-.425.014-.418 2.764m12.966-1c.011 2.2.216 2.982.455 1.738.239-1.244.23-3.044-.02-4s-.446.062-.435 2.262M30.5 197.833c-.275.275-.463 3.238-.418 6.584l.081 6.083 1.521-3.494c2.432-5.588 2.821-9.673.92-9.673-.882 0-1.829.225-2.104.5m52.13 1.417c-1.055 3.938-.727 8.949.558 8.521 1.711-.571 3.112-5.442 2.391-8.314-.771-3.069-2.156-3.167-2.949-.207m23.954 2.828c-.766 5.774-.356 6.808 1.941 4.901 1.067-.885 1.477-2.598 1.275-5.315-.443-5.919-2.409-5.666-3.216.414m47.919 4.885c-.727 10.148.082 23.662 1.466 24.518 1.079.667 2.031-7.296 2.031-16.981 0-9.468-.931-17.5-2.028-17.5-.416 0-1.077 4.483-1.469 9.963m12.934-8.463c-1.347 2.876-1.207 32.13.16 33.497.796.796 1.253-1.867 1.667-9.7.683-12.923-.388-26.87-1.827-23.797m10.089.293c-.289.754-.501 3.921-.471 7.039l.054 5.668 1.801-4.5c3.153-7.875 3.385-9.898 1.12-9.727-1.088.082-2.215.766-2.504 1.52m9.596 4.99l-3.232 6.717 2.585 8.868c2.5 8.577 5.403 15.412 5.485 12.913.022-.675.719-.958 1.564-.633 1.336.512 1.49-1.552 1.25-16.683-.263-16.598-.354-17.28-2.347-17.583-1.681-.256-2.684.954-5.305 6.401m16.519-4.574c-.86 3.21-.791 8.794.109 8.776 2.361-.049 3.357-2 3.065-6.006-.346-4.753-2.208-6.378-3.174-2.77m10.359 4.85c0 4.225-.383 6.822-.954 6.469-.525-.324-2.124-.296-3.553.063-2.282.573-2.562 1.095-2.296 4.281.285 3.407.532 3.647 4.053 3.938 3.413.283 3.75.575 3.75 3.25 0 2.677.304 2.94 3.401 2.94 3.233 0 3.396.171 3.303 3.469-.114 3.995.983 5.64 2.335 3.502 1.211-1.914 1.199-4.216-.04-7.473-.751-1.977-1.478-2.481-2.919-2.023-1.419.45-2.097.012-2.603-1.683-.377-1.261-1.401-3.417-2.276-4.792-1.195-1.879-1.521-4.549-1.311-10.75.154-4.537.017-8.25-.305-8.25s-.585 3.177-.585 7.059M44.02 205.96c-1.111 2.178-2.017 4.766-2.014 5.75.01 3.294 2.144 9.54 2.959 8.66C46.053 219.193 47.78 202 46.81 202c-.423 0-1.678 1.782-2.79 3.96m145.647 2.707c-1.047 1.047-.779 5.333.333 5.333.55 0 1-1.35 1-3 0-3.107-.204-3.463-1.333-2.333m-132.588 6.916c.048 1.165.285 1.402.604.605.289-.722.253-1.585-.079-1.917-.332-.332-.568.258-.525 1.312M30.714 224c-.378 1.375-.686 4.075-.685 6 .001 2.646.242 3.134.986 2 .876-1.333 1.094-1.333 1.97 0 .815 1.242.974 1.156.923-.5-.034-1.1-.612-3.8-1.285-6-1.152-3.767-1.263-3.854-1.909-1.5m146.972.035c-1.069 3.998-.829 8.171.426 7.396.611-.378 1.504-.067 1.984.691 1.347 2.126.988-2.969-.499-7.087-1.216-3.366-1.27-3.395-1.911-1m25.542 2.987c.523 5.443 1.059 6.537 2.705 5.519 1.749-1.081 1.326-9.227-.515-9.934-2.599-.998-2.692-.811-2.19 4.415M214.32 233c0 3.575.182 5.037.403 3.25.222-1.787.222-4.713 0-6.5-.221-1.787-.403-.325-.403 3.25m-158.241-2.823c.043 1.278.312 1.742.597 1.031.418-1.041.813-1.047 2.037-.032 1.278 1.062 1.458.952 1.141-.696-.568-2.948-3.874-3.214-3.775-.303m73.921-.57c0 .985.555 1.394 1.435 1.056.79-.303 1.654-.013 1.921.643.268.657.522.182.565-1.056.057-1.61-.49-2.25-1.921-2.25-1.17 0-2 .667-2 1.607M57.252 237.5c.011 2.2.216 2.982.455 1.738.239-1.244.23-3.044-.02-4s-.446.062-.435 2.262m134.98 1.5c0 1.925.206 2.713.457 1.75.252-.963.252-2.537 0-3.5-.251-.963-.457-.175-.457 1.75" fill="#f2ecce" fill-rule="evenodd"/></svg>