<svg xmlns="http://www.w3.org/2000/svg" width="256" height="256"><path fill-opacity=".008" d="M0 128.004v128.004l128.25-.254 128.25-.254.254-127.75L257.008 0H0v128.004m.485.496c0 70.4.119 99.053.265 63.672.146-35.38.146-92.98 0-128C.604 29.153.485 58.1.485 128.5" fill="#f2ecce" fill-rule="evenodd"/><path fill-opacity=".012" d="M10.326 41.396 7.5 43.827v85.481c0 82.658.063 85.552 1.905 87.587L11.31 219h159.577l1.556-2.223c1.38-1.969 1.557-11.968 1.557-87.845V43.31l-2.105-1.905c-2.026-1.834-5.013-1.915-80.423-2.173l-78.319-.268-2.827 2.432M188 72.351c0 19.424.222 22.75 1.59 23.86 9.596 7.781 14.624 16.107 16.385 27.134 2.393 14.977-4.018 30.74-15.583 38.318L188 163.23v22.326c0 14.15.375 22.558 1.024 22.959.998.617 7.963-1.648 12.976-4.22 1.375-.706 3.063-1.285 3.75-1.289.688-.003 1.25-.456 1.25-1.006s.586-1 1.303-1c3.399 0 20.378-14.905 25.632-22.5 10.701-15.471 15.282-30.203 15.235-49-.058-23.388-7.674-42.513-23.34-58.613-9.567-9.832-25.357-19.248-34.58-20.622l-3.25-.484v22.57m-81.365.722L104 75.145v17.428c0 19.156.326 18.357-6.5 15.898-5.072-1.827-7.786-1.818-13.94.049C71.379 112.215 64 121.844 64 134.044c0 17.325 16.487 30.298 33.025 25.988 7.832-2.041 13.692-6.749 17.022-13.675l2.953-6.143V86.79l3.75.567c2.063.311 5.393.853 7.402 1.203 2.918.508 4.074.214 5.75-1.462 4.451-4.451 1.706-10.313-5.652-12.071-19.954-4.769-18.235-4.614-21.615-1.954M188 129.5c0 10.483.291 13.572 1.25 13.261 1.564-.508 4.59-9.249 4.59-13.261 0-4.012-3.026-12.753-4.59-13.261-.959-.311-1.25 2.778-1.25 13.261m-104.58-6.614c-3.24 1.976-6.42 7.447-6.42 11.047 0 3.025 2.391 8.287 4.612 10.152 1.038.872 3.397 2.183 5.241 2.914 6.701 2.655 15.566-2.939 16.706-10.542 1.25-8.335-4.764-15.45-13.059-15.45-2.2 0-5.386.846-7.08 1.879m-42.197 55.671c-1.55 1.085-2.223 2.578-2.223 4.928 0 6.786-2.161 6.515 51.999 6.515h48.856l2.09-2.657c2.375-3.019 1.994-5.881-1.143-8.593-1.866-1.614-5.731-1.75-49.69-1.75-41.524 0-47.953.201-49.889 1.557" fill="#f2ecce" fill-rule="evenodd"/><path fill-opacity=".048" d="M11.4 40.765C8.095 42.972 8 45.469 8 130.26v84.391l2.314 2.175L12.629 219h156.462l2.454-2.455 2.455-2.454V129.68c0-83.881-.013-84.427-2.073-87.045L169.855 40l-78.678.015c-43.272.009-79.172.346-79.777.75M189 72.46v22.46l5.136 4.79c9.08 8.469 13.074 17.578 13.082 29.83.007 11.805-4.473 21.908-13.192 29.747L189 163.806V208.159l3.164-.695c8.842-1.942 22.45-9.823 31.435-18.207 15.257-14.234 25.403-37.412 25.4-58.021-.006-31.823-15.465-59.313-41.499-73.798C202.584 54.703 191.399 50 189.81 50c-.445 0-.81 10.107-.81 22.46m-80.535-1.508c-4.54 1.84-4.948 3.479-5.301 21.293-.334 16.852-.347 16.94-2.5 16.25-5.459-1.748-14.636-1.706-19.633.091-5.421 1.949-12.053 7.621-14.544 12.439-5.79 11.197-2.637 27.268 6.725 34.277 5.938 4.446 9.493 5.707 16.501 5.852 11.183.232 20.378-5.149 25.313-14.811 2.42-4.737 2.481-5.429 2.809-31.627l.335-26.784 7.261.658c6.738.611 7.415.491 9.415-1.655 5.228-5.612.65-11.723-10.062-13.431-2.356-.375-6.212-1.318-8.569-2.093-4.828-1.59-4.944-1.597-7.75-.459m80.581 58.548c-.033 12.616.015 12.911 1.615 10 2.261-4.112 2.305-15.961.075-20-1.611-2.919-1.657-2.65-1.69 10m-106.531-5.25c-1.428 1.237-3.212 4.05-3.964 6.25-1.17 3.423-1.158 4.505.083 7.5 2.629 6.345 5.681 8.507 11.925 8.446 4.768-.046 5.919-.462 8.549-3.093 5.37-5.37 4.943-14.808-.878-19.387-3.666-2.883-12.238-2.728-15.715.284M43 176.695c-5.34 2.015-6.737 8.325-2.686 12.131 2.31 2.17 2.407 2.174 50.366 2.174 47.097 0 48.103-.041 50.685-2.073 3.182-2.502 3.481-6.66.724-10.066l-1.911-2.361-47.839-.186c-26.311-.102-48.514.07-49.339.381" fill="#f2ecce" fill-rule="evenodd"/><path fill-opacity=".105" d="M14.121 41.002c-1.859.439-3.764 1.406-4.235 2.148-.47.743-.862 39.68-.871 86.529-.013 76.115.152 85.345 1.556 86.75 1.402 1.401 10.035 1.571 80 1.571 77.096 0 78.463-.034 80.429-2 1.909-1.909 2.001-3.349 2.022-31.75.075-99.953-.123-138.353-.721-139.947-1.618-4.31-.343-4.243-79.301-4.169-41.525.039-77.021.43-78.879.868M189 72.317v21.476l6.798 6.854c6.827 6.884 11.202 15.036 11.202 20.877 0 1.29.4 3.398.889 4.683 1.192 3.135-1.241 15.984-4.126 21.793-1.229 2.475-5.054 7.354-8.499 10.843L189 165.185v21.408c0 11.774.208 21.407.463 21.407 1.576 0 17.694-6.875 18.537-7.907.275-.337 2.236-1.508 4.358-2.603 5.232-2.698 17.444-14.747 21.783-21.49 7.937-12.335 9.773-16.909 13.041-32.5 1.223-5.833.481-31.969-.959-33.786-.529-.668-1.277-2.957-1.661-5.087-.384-2.13-1.082-4.605-1.55-5.5-.468-.895-1.833-3.652-3.034-6.127-3.827-7.889-10.707-17.457-16.217-22.555-9.057-8.379-11.348-9.996-19.761-13.942-3.025-1.42-6.19-2.956-7.033-3.415-.843-.458-2.98-1.152-4.75-1.54L189 50.841v21.476m-82.012-1.088c-1.872 1.262-3.715 3.413-4.096 4.782-.381 1.369-.737 9.162-.792 17.318l-.1 14.83-3.25-.83c-6.003-1.532-15.159-.764-20.056 1.681-5.418 2.706-12.682 9.397-12.7 11.698-.004.436-.715 2.142-1.581 3.792-1.744 3.324-2.181 15.03-.676 18.122 3.884 7.98 5.59 10.332 9.869 13.607 8.249 6.313 20.47 7.347 30.111 2.548 5.231-2.603 8.375-5.833 11.953-12.277l2.775-5 .363-26.844.363-26.844 2.165.722c1.19.398 4.189.923 6.664 1.166 3.594.354 4.953.019 6.75-1.667 2.783-2.611 2.987-7.877.42-10.837-1.742-2.009-3.397-2.586-16.17-5.636-3.025-.723-6.2-1.609-7.055-1.969-.893-.376-3.002.321-4.957 1.638m-24.417 54.139c-3.245 3.061-3.571 3.865-3.571 8.813 0 4.66.396 5.809 2.75 7.972 4.623 4.25 8.204 5.182 12.695 3.306 5.79-2.42 7.483-5.015 7.522-11.535.027-4.534-.387-5.958-2.217-7.625-6.051-5.511-11.982-5.833-17.179-.931M189.979 125c-.269 1.375-.255 4.525.032 7 .396 3.423.638 3.902 1.01 2 .269-1.375.255-4.525-.032-7-.396-3.423-.638-3.902-1.01-2m-148.42 51.872c-4.608 2.703-5.379 8.155-1.752 12.378 1.394 1.623 5.112 1.75 51.275 1.75h49.773l2.072-2.635c2.398-3.048 2.605-6.078.597-8.73-3.472-4.584-4.112-4.639-52.888-4.562-41.806.066-46.412.235-49.077 1.799" fill="#f2ecce" fill-rule="evenodd"/></svg>